M48
;DRILL file {KiCad 4.0.5} date 2017 February 05, Sunday 16:16:29
;FORMAT={2:4/ absolute / inch / suppress trailing zeros}
FMAT,2
INCH,LZ
T1C0.013
T2C0.020
T3C0.022
T4C0.039
T5C0.051
T6C0.035
T7C0.087
%
G90
G05
M72
T1
X0282Y-0447
X0284Y-0452
X0286Y-0447
X030785Y-04371
X030795Y-0449
X030795Y-046195
X03264Y-04345
X03265Y-04555
X03285Y-04075
X0333Y-04533
X03337Y-04571
X03352Y-04607
X03395Y-04664
X03483Y-047585
X03486Y-0437
X035465Y-046735
X036505Y-03909
X03673Y-045395
X039095Y-04531
X039555Y-039155
X0396Y-04764
X04046Y-04396
X04046Y-044975
X04065Y-04226
X0424Y-0509
X04254Y-04401
T4
X03308Y-05183
X03408Y-05183
X03417Y-04233
X03508Y-05183
X03517Y-04233
X03608Y-05183
X03617Y-04233
X03717Y-04233
X03752Y-051855
X03852Y-051855
X03952Y-051855
X04052Y-051855
T5
X026831Y-03935
X02705Y-05125
X0288Y-03935
X029019Y-05125
T6
X038322Y-038505
X039228Y-038505
T7
X0247Y-03845
X0247Y-0521
X0422Y-0385
X04225Y-0521
T2
X042869Y-043132G85X042614Y-043132
G05
X042869Y-045888G85X042614Y-045888
G05
T3
X041679Y-043585G85X041679Y-043467
G05
X041679Y-045553G85X041679Y-045435
G05
T0
M30
