G04 #@! TF.FileFunction,Copper,L1,Top,Signal*
%FSLAX46Y46*%
G04 Gerber Fmt 4.6, Leading zero omitted, Abs format (unit mm)*
G04 Created by KiCad (PCBNEW 4.0.5) date 2017 February 12, Sunday 18:02:01*
%MOMM*%
%LPD*%
G01*
G04 APERTURE LIST*
%ADD10C,0.100000*%
%ADD11R,1.500000X1.500000*%
%ADD12R,1.200000X1.200000*%
%ADD13R,1.500000X1.300000*%
%ADD14R,1.700000X1.700000*%
%ADD15O,1.700000X1.700000*%
%ADD16R,2.500000X2.500000*%
%ADD17C,2.500000*%
%ADD18R,1.250000X1.500000*%
%ADD19R,1.500000X1.250000*%
%ADD20R,1.350000X0.400000*%
%ADD21O,0.950000X1.250000*%
%ADD22O,1.550000X1.000000*%
%ADD23R,1.300000X1.500000*%
%ADD24R,0.750000X0.300000*%
%ADD25R,0.300000X0.750000*%
%ADD26R,1.600000X1.600000*%
%ADD27R,0.299720X0.449580*%
%ADD28R,0.450000X1.500000*%
%ADD29C,0.685800*%
%ADD30C,0.254000*%
%ADD31C,0.152400*%
%ADD32C,1.100000*%
G04 APERTURE END LIST*
D10*
D11*
X95038500Y-98352700D03*
D12*
X96388500Y-96502700D03*
X100588500Y-96502700D03*
D11*
X101938500Y-98352700D03*
D13*
X83138000Y-106045000D03*
X80438000Y-106045000D03*
D14*
X84023200Y-131648200D03*
D15*
X86563200Y-131648200D03*
X89103200Y-131648200D03*
X91643200Y-131648200D03*
D16*
X73152000Y-99949000D03*
D17*
X68152000Y-99949000D03*
D18*
X98729800Y-118472900D03*
X98729800Y-120972900D03*
D19*
X92690000Y-120802400D03*
X90190000Y-120802400D03*
X95003300Y-115747800D03*
X97503300Y-115747800D03*
X73680000Y-108508800D03*
X76180000Y-108508800D03*
X71648000Y-106426000D03*
X74148000Y-106426000D03*
D18*
X96393000Y-118460200D03*
X96393000Y-120960200D03*
D12*
X107696000Y-119296000D03*
X107696000Y-121496000D03*
D19*
X103383400Y-117284500D03*
X100883400Y-117284500D03*
D14*
X95300800Y-131711700D03*
D15*
X97840800Y-131711700D03*
X100380800Y-131711700D03*
X102920800Y-131711700D03*
D14*
X94411800Y-107518200D03*
D15*
X91871800Y-107518200D03*
X89331800Y-107518200D03*
X86791800Y-107518200D03*
D20*
X105863400Y-114355400D03*
X105863400Y-113705400D03*
X105863400Y-113055400D03*
X105863400Y-112405400D03*
X105863400Y-111755400D03*
D21*
X105863400Y-115555400D03*
X105863400Y-110555400D03*
D22*
X108563400Y-116555400D03*
X108563400Y-109555400D03*
D16*
X68707000Y-130175000D03*
D17*
X73707000Y-130175000D03*
D23*
X82931000Y-114347000D03*
X82931000Y-117047000D03*
X82931000Y-109013000D03*
X82931000Y-111713000D03*
D13*
X83138000Y-124968000D03*
X80438000Y-124968000D03*
D23*
X82931000Y-119808000D03*
X82931000Y-122508000D03*
D13*
X96701600Y-113436400D03*
X94001600Y-113436400D03*
X96625400Y-111175800D03*
X93925400Y-111175800D03*
D23*
X107696000Y-124126000D03*
X107696000Y-126826000D03*
D13*
X77796400Y-132613400D03*
X80496400Y-132613400D03*
X72970400Y-120650000D03*
X75670400Y-120650000D03*
X77771000Y-129844800D03*
X80471000Y-129844800D03*
X75307200Y-122961400D03*
X78007200Y-122961400D03*
X79582000Y-114046000D03*
X76882000Y-114046000D03*
X79582000Y-110998000D03*
X76882000Y-110998000D03*
X79582000Y-117348000D03*
X76882000Y-117348000D03*
D24*
X86143200Y-113284600D03*
X86143200Y-113934600D03*
X86143200Y-114584600D03*
X86143200Y-115234600D03*
X86143200Y-115884600D03*
X86143200Y-116534600D03*
D25*
X86843200Y-117234600D03*
X87493200Y-117234600D03*
X88143200Y-117234600D03*
X88793200Y-117234600D03*
X89443200Y-117234600D03*
X90093200Y-117234600D03*
D24*
X90793200Y-116534600D03*
X90793200Y-115884600D03*
X90793200Y-115234600D03*
X90793200Y-114584600D03*
X90793200Y-113934600D03*
X90793200Y-113284600D03*
D25*
X90093200Y-112584600D03*
X89443200Y-112584600D03*
X88793200Y-112584600D03*
X88143200Y-112584600D03*
X87493200Y-112584600D03*
X86843200Y-112584600D03*
D26*
X89268200Y-115709600D03*
X89268200Y-114109600D03*
X87668200Y-115709600D03*
X87668200Y-114109600D03*
D27*
X103776780Y-108976160D03*
X102776020Y-108976160D03*
X103776780Y-110378240D03*
X103276400Y-108976160D03*
X102776020Y-110378240D03*
D28*
X68845000Y-116488000D03*
X69495000Y-116488000D03*
X70145000Y-116488000D03*
X70795000Y-116488000D03*
X71445000Y-116488000D03*
X72095000Y-116488000D03*
X72745000Y-116488000D03*
X73395000Y-116488000D03*
X73395000Y-110588000D03*
X72745000Y-110588000D03*
X72095000Y-110588000D03*
X71445000Y-110588000D03*
X70795000Y-110588000D03*
X70145000Y-110588000D03*
X69495000Y-110588000D03*
X68845000Y-110588000D03*
D29*
X92722700Y-99288600D03*
X99301300Y-115087400D03*
X88468200Y-120865900D03*
X100584000Y-121005600D03*
X88544400Y-110998000D03*
X108051600Y-111785400D03*
X103251000Y-107340400D03*
X107696000Y-129286000D03*
X83439000Y-103505000D03*
X90081100Y-118706900D03*
X93294200Y-115303300D03*
X82931000Y-115697000D03*
X84582000Y-115138200D03*
X82905600Y-110363000D03*
X84759800Y-116103400D03*
X85140800Y-117017800D03*
X102768400Y-114236500D03*
X102768400Y-111658400D03*
X100469700Y-99453700D03*
X86233000Y-118465600D03*
X78219300Y-117335300D03*
X78219300Y-114046000D03*
X78193900Y-111023400D03*
X71628000Y-113538000D03*
X72644000Y-113538000D03*
X72136000Y-114808000D03*
D30*
X90793200Y-115234600D02*
X92146000Y-115234600D01*
X93771400Y-118460200D02*
X96393000Y-118460200D01*
X92633800Y-117322600D02*
X93771400Y-118460200D01*
X92633800Y-115722400D02*
X92633800Y-117322600D01*
X92146000Y-115234600D02*
X92633800Y-115722400D01*
X98729800Y-118472900D02*
X96405700Y-118472900D01*
X96405700Y-118472900D02*
X96393000Y-118460200D01*
X100883400Y-117284500D02*
X99918200Y-117284500D01*
X99918200Y-117284500D02*
X98729800Y-118472900D01*
X95038500Y-98352700D02*
X95038500Y-97852700D01*
X95038500Y-97852700D02*
X96388500Y-96502700D01*
X95038500Y-98352700D02*
X93658600Y-98352700D01*
X93658600Y-98352700D02*
X92722700Y-99288600D01*
X97503300Y-115747800D02*
X98640900Y-115747800D01*
X98640900Y-115747800D02*
X99301300Y-115087400D01*
X90190000Y-120802400D02*
X88531700Y-120802400D01*
X88531700Y-120802400D02*
X88468200Y-120865900D01*
X96393000Y-120960200D02*
X98717100Y-120960200D01*
X98717100Y-120960200D02*
X98729800Y-120972900D01*
X98729800Y-120972900D02*
X100551300Y-120972900D01*
X100551300Y-120972900D02*
X100584000Y-121005600D01*
X89268200Y-115709600D02*
X89268200Y-114109600D01*
X88793200Y-112584600D02*
X88793200Y-111246800D01*
X88793200Y-111246800D02*
X88544400Y-110998000D01*
X87668200Y-114109600D02*
X89268200Y-114109600D01*
X89268200Y-115709600D02*
X87668200Y-115709600D01*
X88793200Y-112584600D02*
X88793200Y-113634600D01*
X88793200Y-113634600D02*
X89268200Y-114109600D01*
X105863400Y-111755400D02*
X108021600Y-111755400D01*
X108021600Y-111755400D02*
X108051600Y-111785400D01*
D31*
X103276400Y-108976160D02*
X103276400Y-107365800D01*
X103276400Y-107365800D02*
X103251000Y-107340400D01*
D30*
X107696000Y-126826000D02*
X107696000Y-129286000D01*
X83138000Y-106045000D02*
X83138000Y-103806000D01*
X83138000Y-103806000D02*
X83439000Y-103505000D01*
X90793200Y-115884600D02*
X91805400Y-115884600D01*
X92100400Y-116179600D02*
X92100400Y-120212800D01*
X91805400Y-115884600D02*
X92100400Y-116179600D01*
X92100400Y-120212800D02*
X92690000Y-120802400D01*
X90093200Y-118694800D02*
X90093200Y-117234600D01*
X90081100Y-118706900D02*
X90093200Y-118694800D01*
X94558800Y-115303300D02*
X95003300Y-115747800D01*
X90793200Y-114584600D02*
X92575500Y-114584600D01*
X92575500Y-114584600D02*
X93294200Y-115303300D01*
X86143200Y-113934600D02*
X85639000Y-113934600D01*
X85318600Y-113284000D02*
X85064600Y-113030000D01*
X85318600Y-113614200D02*
X85318600Y-113284000D01*
X85639000Y-113934600D02*
X85318600Y-113614200D01*
X88143200Y-112584600D02*
X88143200Y-112120800D01*
X88143200Y-112120800D02*
X87401400Y-111379000D01*
X90093200Y-117234600D02*
X90093200Y-117957000D01*
X90093200Y-117957000D02*
X90144600Y-118008400D01*
X88143200Y-117234600D02*
X88143200Y-118039000D01*
X88143200Y-118039000D02*
X88417400Y-118313200D01*
X90793200Y-116534600D02*
X90793200Y-117234600D01*
X90793200Y-117234600D02*
X90093200Y-117234600D01*
X71445000Y-110588000D02*
X71445000Y-106629000D01*
X71445000Y-106629000D02*
X71648000Y-106426000D01*
X71445000Y-110588000D02*
X71445000Y-111689000D01*
X70866000Y-113538000D02*
X70104000Y-114300000D01*
X70866000Y-112268000D02*
X70866000Y-113538000D01*
X71445000Y-111689000D02*
X70866000Y-112268000D01*
X69495000Y-116488000D02*
X70145000Y-116488000D01*
X107696000Y-121496000D02*
X107696000Y-124126000D01*
X105863400Y-114355400D02*
X104668800Y-114355400D01*
X103383400Y-115640800D02*
X103383400Y-117284500D01*
X104668800Y-114355400D02*
X103383400Y-115640800D01*
X82931000Y-114347000D02*
X82931000Y-115697000D01*
X86143200Y-114584600D02*
X85146000Y-114584600D01*
X84607400Y-114046000D02*
X83232000Y-114046000D01*
X85146000Y-114584600D02*
X84607400Y-114046000D01*
X83232000Y-114046000D02*
X82931000Y-114347000D01*
X86143200Y-115234600D02*
X84678400Y-115234600D01*
X84678400Y-115234600D02*
X84582000Y-115138200D01*
X82931000Y-110337600D02*
X82931000Y-109013000D01*
X82905600Y-110363000D02*
X82931000Y-110337600D01*
X86143200Y-115884600D02*
X84978600Y-115884600D01*
X84978600Y-115884600D02*
X84759800Y-116103400D01*
X85624000Y-116534600D02*
X85140800Y-117017800D01*
X86143200Y-116534600D02*
X85624000Y-116534600D01*
X90093200Y-112584600D02*
X90093200Y-111811400D01*
X91871800Y-111226600D02*
X91871800Y-107518200D01*
X91490800Y-111607600D02*
X91871800Y-111226600D01*
X90297000Y-111607600D02*
X91490800Y-111607600D01*
X90093200Y-111811400D02*
X90297000Y-111607600D01*
X89443200Y-112584600D02*
X89443200Y-107629600D01*
X89443200Y-107629600D02*
X89331800Y-107518200D01*
X102768400Y-113705400D02*
X102768400Y-114236500D01*
X102776020Y-111650780D02*
X102776020Y-110378240D01*
X102776020Y-111650780D02*
X102768400Y-111658400D01*
X102768400Y-113705400D02*
X102768400Y-113703100D01*
X102768400Y-113703100D02*
X102768400Y-113705400D01*
X105863400Y-113705400D02*
X102768400Y-113705400D01*
X102768400Y-113705400D02*
X96970600Y-113705400D01*
X96970600Y-113705400D02*
X96701600Y-113436400D01*
X103776780Y-112844580D02*
X98294180Y-112844580D01*
X98294180Y-112844580D02*
X96625400Y-111175800D01*
X103776780Y-110378240D02*
X103776780Y-112844580D01*
X103776780Y-112844580D02*
X103987600Y-113055400D01*
X105863400Y-113055400D02*
X103987600Y-113055400D01*
X76882000Y-114046000D02*
X76882000Y-115236000D01*
X81200000Y-115316000D02*
X82931000Y-117047000D01*
X76962000Y-115316000D02*
X81200000Y-115316000D01*
X76882000Y-115236000D02*
X76962000Y-115316000D01*
X73395000Y-116488000D02*
X74440000Y-116488000D01*
X74440000Y-116488000D02*
X76882000Y-114046000D01*
X76882000Y-110998000D02*
X76882000Y-112188000D01*
X76962000Y-112268000D02*
X82376000Y-112268000D01*
X76882000Y-112188000D02*
X76962000Y-112268000D01*
X82376000Y-112268000D02*
X82931000Y-111713000D01*
X76472000Y-110588000D02*
X76882000Y-110998000D01*
X73395000Y-110588000D02*
X76472000Y-110588000D01*
X73395000Y-110588000D02*
X73395000Y-111241000D01*
X87493200Y-117234600D02*
X87493200Y-118526200D01*
X86817200Y-119202200D02*
X83536800Y-119202200D01*
X87493200Y-118526200D02*
X86817200Y-119202200D01*
X83536800Y-119202200D02*
X82931000Y-119808000D01*
X80264000Y-115951000D02*
X78279000Y-115951000D01*
X80264000Y-115951000D02*
X81534000Y-117221000D01*
X81534000Y-117221000D02*
X81534000Y-121111000D01*
X82931000Y-122508000D02*
X81534000Y-121111000D01*
X78279000Y-115951000D02*
X76882000Y-117348000D01*
X72885300Y-118097300D02*
X75463400Y-118097300D01*
X75463400Y-118097300D02*
X76212700Y-117348000D01*
X76212700Y-117348000D02*
X76882000Y-117348000D01*
X72745000Y-116488000D02*
X72745000Y-117957000D01*
X72745000Y-117957000D02*
X72885300Y-118097300D01*
X72885300Y-118097300D02*
X72898000Y-118110000D01*
X90793200Y-113934600D02*
X93503400Y-113934600D01*
X93503400Y-113934600D02*
X94001600Y-113436400D01*
X90793200Y-113284600D02*
X91816600Y-113284600D01*
X91816600Y-113284600D02*
X93925400Y-111175800D01*
X72970400Y-120650000D02*
X72970400Y-124075200D01*
X76631800Y-131448800D02*
X77796400Y-132613400D01*
X76631800Y-125171200D02*
X76631800Y-131448800D01*
X75996800Y-124536200D02*
X76631800Y-125171200D01*
X73431400Y-124536200D02*
X75996800Y-124536200D01*
X72970400Y-124075200D02*
X73431400Y-124536200D01*
X70795000Y-116488000D02*
X70795000Y-119994800D01*
X71450200Y-120650000D02*
X72970400Y-120650000D01*
X70795000Y-119994800D02*
X71450200Y-120650000D01*
X77771000Y-129844800D02*
X77771000Y-124413000D01*
X76606400Y-124307600D02*
X75307200Y-123008400D01*
X77665600Y-124307600D02*
X76606400Y-124307600D01*
X77771000Y-124413000D02*
X77665600Y-124307600D01*
X75307200Y-123008400D02*
X75307200Y-122961400D01*
X71445000Y-116488000D02*
X71445000Y-118257200D01*
X74447400Y-122101600D02*
X75307200Y-122961400D01*
X74447400Y-119583200D02*
X74447400Y-122101600D01*
X74168000Y-119303800D02*
X74447400Y-119583200D01*
X72491600Y-119303800D02*
X74168000Y-119303800D01*
X71445000Y-118257200D02*
X72491600Y-119303800D01*
X100469700Y-99453700D02*
X101570700Y-98352700D01*
X101570700Y-98352700D02*
X101938500Y-98352700D01*
X86843200Y-117234600D02*
X86843200Y-117855400D01*
X86843200Y-117855400D02*
X86233000Y-118465600D01*
X100588500Y-96502700D02*
X100588500Y-97002700D01*
X100588500Y-97002700D02*
X101938500Y-98352700D01*
X69495000Y-110588000D02*
X70145000Y-110588000D01*
X79582000Y-117348000D02*
X79582000Y-124112000D01*
X79582000Y-124112000D02*
X80438000Y-124968000D01*
X78232000Y-117348000D02*
X79582000Y-117348000D01*
X78219300Y-117335300D02*
X78232000Y-117348000D01*
X79582000Y-110998000D02*
X78219300Y-110998000D01*
X78219300Y-114046000D02*
X79582000Y-114046000D01*
X78219300Y-110998000D02*
X78193900Y-111023400D01*
X80496400Y-132613400D02*
X80496400Y-129870200D01*
X80496400Y-129870200D02*
X80471000Y-129844800D01*
X80471000Y-129844800D02*
X80471000Y-125001000D01*
X80471000Y-125001000D02*
X80438000Y-124968000D01*
X73680000Y-108508800D02*
X73680000Y-108782800D01*
X73680000Y-108782800D02*
X74574400Y-109677200D01*
X78261200Y-109677200D02*
X79582000Y-110998000D01*
X74574400Y-109677200D02*
X78261200Y-109677200D01*
X72745000Y-110588000D02*
X72745000Y-109443800D01*
X72745000Y-109443800D02*
X73680000Y-108508800D01*
X79582000Y-117348000D02*
X80010000Y-117348000D01*
X79582000Y-114046000D02*
X80010000Y-114046000D01*
X75670400Y-120650000D02*
X75695800Y-120650000D01*
X75695800Y-120650000D02*
X78007200Y-122961400D01*
X72095000Y-116488000D02*
X72095000Y-118170600D01*
X75670400Y-118875800D02*
X75670400Y-120650000D01*
X75463400Y-118668800D02*
X75670400Y-118875800D01*
X72593200Y-118668800D02*
X75463400Y-118668800D01*
X72095000Y-118170600D02*
X72593200Y-118668800D01*
X80438000Y-106045000D02*
X76708000Y-106045000D01*
X76708000Y-106045000D02*
X76180000Y-105517000D01*
D32*
X76180000Y-108508800D02*
X76180000Y-105517000D01*
X76180000Y-105517000D02*
X74148000Y-103485000D01*
X74148000Y-106426000D02*
X74148000Y-103485000D01*
X74148000Y-103485000D02*
X74148000Y-100945000D01*
X74148000Y-100945000D02*
X73152000Y-99949000D01*
D30*
X72095000Y-111465000D02*
X71841000Y-113325000D01*
X71841000Y-113325000D02*
X71628000Y-113538000D01*
X72095000Y-110588000D02*
X72095000Y-111465000D01*
X72095000Y-111465000D02*
X72644000Y-113538000D01*
X72095000Y-116488000D02*
X72095000Y-114849000D01*
X72095000Y-114849000D02*
X72136000Y-114808000D01*
G36*
X70485000Y-115103000D02*
X70416250Y-115103000D01*
X70395938Y-115123312D01*
X70334683Y-115134838D01*
X70140084Y-115260059D01*
X70079699Y-115199673D01*
X69893153Y-115122403D01*
X69873750Y-115103000D01*
X69766250Y-115103000D01*
X69746847Y-115122403D01*
X69560301Y-115199673D01*
X69495000Y-115264974D01*
X69429699Y-115199673D01*
X69243153Y-115122403D01*
X69223750Y-115103000D01*
X69116250Y-115103000D01*
X69096847Y-115122403D01*
X68910301Y-115199673D01*
X68732500Y-115377475D01*
X68732500Y-115261750D01*
X68573750Y-115103000D01*
X68493690Y-115103000D01*
X68260301Y-115199673D01*
X68081673Y-115378302D01*
X67985000Y-115611691D01*
X67985000Y-116202250D01*
X68143750Y-116361000D01*
X68732500Y-116361000D01*
X68732500Y-116299750D01*
X68793750Y-116361000D01*
X69642000Y-116361000D01*
X69642000Y-116615000D01*
X68793750Y-116615000D01*
X68732500Y-116676250D01*
X68732500Y-116615000D01*
X68143750Y-116615000D01*
X67985000Y-116773750D01*
X67985000Y-117364309D01*
X68081673Y-117597698D01*
X68260301Y-117776327D01*
X68493690Y-117873000D01*
X68573750Y-117873000D01*
X68732500Y-117714250D01*
X68732500Y-117598525D01*
X68910301Y-117776327D01*
X69096847Y-117853597D01*
X69116250Y-117873000D01*
X69223750Y-117873000D01*
X69243153Y-117853597D01*
X69429699Y-117776327D01*
X69495000Y-117711026D01*
X69560301Y-117776327D01*
X69746847Y-117853597D01*
X69766250Y-117873000D01*
X69873750Y-117873000D01*
X69893153Y-117853597D01*
X70017998Y-117801884D01*
X70017998Y-117873000D01*
X70033000Y-117873000D01*
X70033000Y-119994800D01*
X70091004Y-120286405D01*
X70139107Y-120358396D01*
X70256185Y-120533615D01*
X70485000Y-120762430D01*
X70485000Y-128554974D01*
X70316698Y-128386673D01*
X70083309Y-128290000D01*
X68992750Y-128290000D01*
X68834000Y-128448750D01*
X68834000Y-130048000D01*
X68854000Y-130048000D01*
X68854000Y-130302000D01*
X68834000Y-130302000D01*
X68834000Y-131901250D01*
X68992750Y-132060000D01*
X70083309Y-132060000D01*
X70316698Y-131963327D01*
X70485000Y-131795026D01*
X70485000Y-134290000D01*
X60710000Y-134290000D01*
X60710000Y-132677599D01*
X61002699Y-132677599D01*
X61266281Y-133315515D01*
X61753918Y-133804004D01*
X62391373Y-134068699D01*
X63081599Y-134069301D01*
X63719515Y-133805719D01*
X64208004Y-133318082D01*
X64472699Y-132680627D01*
X64473301Y-131990401D01*
X64209719Y-131352485D01*
X63722082Y-130863996D01*
X63084627Y-130599301D01*
X62394401Y-130598699D01*
X61756485Y-130862281D01*
X61267996Y-131349918D01*
X61003301Y-131987373D01*
X61002699Y-132677599D01*
X60710000Y-132677599D01*
X60710000Y-130460750D01*
X66822000Y-130460750D01*
X66822000Y-131551310D01*
X66918673Y-131784699D01*
X67097302Y-131963327D01*
X67330691Y-132060000D01*
X68421250Y-132060000D01*
X68580000Y-131901250D01*
X68580000Y-130302000D01*
X66980750Y-130302000D01*
X66822000Y-130460750D01*
X60710000Y-130460750D01*
X60710000Y-128798690D01*
X66822000Y-128798690D01*
X66822000Y-129889250D01*
X66980750Y-130048000D01*
X68580000Y-130048000D01*
X68580000Y-128448750D01*
X68421250Y-128290000D01*
X67330691Y-128290000D01*
X67097302Y-128386673D01*
X66918673Y-128565301D01*
X66822000Y-128798690D01*
X60710000Y-128798690D01*
X60710000Y-114173000D01*
X70485000Y-114173000D01*
X70485000Y-115103000D01*
X70485000Y-115103000D01*
G37*
X70485000Y-115103000D02*
X70416250Y-115103000D01*
X70395938Y-115123312D01*
X70334683Y-115134838D01*
X70140084Y-115260059D01*
X70079699Y-115199673D01*
X69893153Y-115122403D01*
X69873750Y-115103000D01*
X69766250Y-115103000D01*
X69746847Y-115122403D01*
X69560301Y-115199673D01*
X69495000Y-115264974D01*
X69429699Y-115199673D01*
X69243153Y-115122403D01*
X69223750Y-115103000D01*
X69116250Y-115103000D01*
X69096847Y-115122403D01*
X68910301Y-115199673D01*
X68732500Y-115377475D01*
X68732500Y-115261750D01*
X68573750Y-115103000D01*
X68493690Y-115103000D01*
X68260301Y-115199673D01*
X68081673Y-115378302D01*
X67985000Y-115611691D01*
X67985000Y-116202250D01*
X68143750Y-116361000D01*
X68732500Y-116361000D01*
X68732500Y-116299750D01*
X68793750Y-116361000D01*
X69642000Y-116361000D01*
X69642000Y-116615000D01*
X68793750Y-116615000D01*
X68732500Y-116676250D01*
X68732500Y-116615000D01*
X68143750Y-116615000D01*
X67985000Y-116773750D01*
X67985000Y-117364309D01*
X68081673Y-117597698D01*
X68260301Y-117776327D01*
X68493690Y-117873000D01*
X68573750Y-117873000D01*
X68732500Y-117714250D01*
X68732500Y-117598525D01*
X68910301Y-117776327D01*
X69096847Y-117853597D01*
X69116250Y-117873000D01*
X69223750Y-117873000D01*
X69243153Y-117853597D01*
X69429699Y-117776327D01*
X69495000Y-117711026D01*
X69560301Y-117776327D01*
X69746847Y-117853597D01*
X69766250Y-117873000D01*
X69873750Y-117873000D01*
X69893153Y-117853597D01*
X70017998Y-117801884D01*
X70017998Y-117873000D01*
X70033000Y-117873000D01*
X70033000Y-119994800D01*
X70091004Y-120286405D01*
X70139107Y-120358396D01*
X70256185Y-120533615D01*
X70485000Y-120762430D01*
X70485000Y-128554974D01*
X70316698Y-128386673D01*
X70083309Y-128290000D01*
X68992750Y-128290000D01*
X68834000Y-128448750D01*
X68834000Y-130048000D01*
X68854000Y-130048000D01*
X68854000Y-130302000D01*
X68834000Y-130302000D01*
X68834000Y-131901250D01*
X68992750Y-132060000D01*
X70083309Y-132060000D01*
X70316698Y-131963327D01*
X70485000Y-131795026D01*
X70485000Y-134290000D01*
X60710000Y-134290000D01*
X60710000Y-132677599D01*
X61002699Y-132677599D01*
X61266281Y-133315515D01*
X61753918Y-133804004D01*
X62391373Y-134068699D01*
X63081599Y-134069301D01*
X63719515Y-133805719D01*
X64208004Y-133318082D01*
X64472699Y-132680627D01*
X64473301Y-131990401D01*
X64209719Y-131352485D01*
X63722082Y-130863996D01*
X63084627Y-130599301D01*
X62394401Y-130598699D01*
X61756485Y-130862281D01*
X61267996Y-131349918D01*
X61003301Y-131987373D01*
X61002699Y-132677599D01*
X60710000Y-132677599D01*
X60710000Y-130460750D01*
X66822000Y-130460750D01*
X66822000Y-131551310D01*
X66918673Y-131784699D01*
X67097302Y-131963327D01*
X67330691Y-132060000D01*
X68421250Y-132060000D01*
X68580000Y-131901250D01*
X68580000Y-130302000D01*
X66980750Y-130302000D01*
X66822000Y-130460750D01*
X60710000Y-130460750D01*
X60710000Y-128798690D01*
X66822000Y-128798690D01*
X66822000Y-129889250D01*
X66980750Y-130048000D01*
X68580000Y-130048000D01*
X68580000Y-128448750D01*
X68421250Y-128290000D01*
X67330691Y-128290000D01*
X67097302Y-128386673D01*
X66918673Y-128565301D01*
X66822000Y-128798690D01*
X60710000Y-128798690D01*
X60710000Y-114173000D01*
X70485000Y-114173000D01*
X70485000Y-115103000D01*
G36*
X70485000Y-105312174D02*
X70446559Y-105336910D01*
X70301569Y-105549110D01*
X70250560Y-105801000D01*
X70250560Y-107051000D01*
X70294838Y-107286317D01*
X70433910Y-107502441D01*
X70485000Y-107537349D01*
X70485000Y-109203000D01*
X70416250Y-109203000D01*
X70395938Y-109223312D01*
X70334683Y-109234838D01*
X70140084Y-109360059D01*
X70079699Y-109299673D01*
X69893153Y-109222403D01*
X69873750Y-109203000D01*
X69766250Y-109203000D01*
X69746847Y-109222403D01*
X69560301Y-109299673D01*
X69495000Y-109364974D01*
X69429699Y-109299673D01*
X69243153Y-109222403D01*
X69223750Y-109203000D01*
X69116250Y-109203000D01*
X69096847Y-109222403D01*
X68910301Y-109299673D01*
X68732500Y-109477475D01*
X68732500Y-109361750D01*
X68573750Y-109203000D01*
X68493690Y-109203000D01*
X68260301Y-109299673D01*
X68081673Y-109478302D01*
X67985000Y-109711691D01*
X67985000Y-110302250D01*
X68143750Y-110461000D01*
X68732500Y-110461000D01*
X68732500Y-110399750D01*
X68793750Y-110461000D01*
X69642000Y-110461000D01*
X69642000Y-110715000D01*
X68793750Y-110715000D01*
X68732500Y-110776250D01*
X68732500Y-110715000D01*
X68143750Y-110715000D01*
X67985000Y-110873750D01*
X67985000Y-111464309D01*
X68081673Y-111697698D01*
X68260301Y-111876327D01*
X68493690Y-111973000D01*
X68573750Y-111973000D01*
X68732500Y-111814250D01*
X68732500Y-111698525D01*
X68910301Y-111876327D01*
X69096847Y-111953597D01*
X69116250Y-111973000D01*
X69223750Y-111973000D01*
X69243153Y-111953597D01*
X69429699Y-111876327D01*
X69495000Y-111811026D01*
X69560301Y-111876327D01*
X69746847Y-111953597D01*
X69766250Y-111973000D01*
X69873750Y-111973000D01*
X69893153Y-111953597D01*
X70079699Y-111876327D01*
X70141956Y-111814070D01*
X70230185Y-111874355D01*
X70162004Y-111976395D01*
X70104000Y-112268000D01*
X70104000Y-112903000D01*
X60710000Y-112903000D01*
X60710000Y-101282320D01*
X66998285Y-101282320D01*
X67127533Y-101575123D01*
X67827806Y-101843388D01*
X68577435Y-101823250D01*
X69176467Y-101575123D01*
X69305715Y-101282320D01*
X68152000Y-100128605D01*
X66998285Y-101282320D01*
X60710000Y-101282320D01*
X60710000Y-99624806D01*
X66257612Y-99624806D01*
X66277750Y-100374435D01*
X66525877Y-100973467D01*
X66818680Y-101102715D01*
X67972395Y-99949000D01*
X68331605Y-99949000D01*
X69485320Y-101102715D01*
X69778123Y-100973467D01*
X70046388Y-100273194D01*
X70026250Y-99523565D01*
X69778123Y-98924533D01*
X69485320Y-98795285D01*
X68331605Y-99949000D01*
X67972395Y-99949000D01*
X66818680Y-98795285D01*
X66525877Y-98924533D01*
X66257612Y-99624806D01*
X60710000Y-99624806D01*
X60710000Y-98006599D01*
X61002699Y-98006599D01*
X61266281Y-98644515D01*
X61753918Y-99133004D01*
X62391373Y-99397699D01*
X63081599Y-99398301D01*
X63719515Y-99134719D01*
X64208004Y-98647082D01*
X64221043Y-98615680D01*
X66998285Y-98615680D01*
X68152000Y-99769395D01*
X69305715Y-98615680D01*
X69176467Y-98322877D01*
X68476194Y-98054612D01*
X67726565Y-98074750D01*
X67127533Y-98322877D01*
X66998285Y-98615680D01*
X64221043Y-98615680D01*
X64472699Y-98009627D01*
X64473301Y-97319401D01*
X64209719Y-96681485D01*
X63722082Y-96192996D01*
X63084627Y-95928301D01*
X62394401Y-95927699D01*
X61756485Y-96191281D01*
X61267996Y-96678918D01*
X61003301Y-97316373D01*
X61002699Y-98006599D01*
X60710000Y-98006599D01*
X60710000Y-95710000D01*
X70485000Y-95710000D01*
X70485000Y-105312174D01*
X70485000Y-105312174D01*
G37*
X70485000Y-105312174D02*
X70446559Y-105336910D01*
X70301569Y-105549110D01*
X70250560Y-105801000D01*
X70250560Y-107051000D01*
X70294838Y-107286317D01*
X70433910Y-107502441D01*
X70485000Y-107537349D01*
X70485000Y-109203000D01*
X70416250Y-109203000D01*
X70395938Y-109223312D01*
X70334683Y-109234838D01*
X70140084Y-109360059D01*
X70079699Y-109299673D01*
X69893153Y-109222403D01*
X69873750Y-109203000D01*
X69766250Y-109203000D01*
X69746847Y-109222403D01*
X69560301Y-109299673D01*
X69495000Y-109364974D01*
X69429699Y-109299673D01*
X69243153Y-109222403D01*
X69223750Y-109203000D01*
X69116250Y-109203000D01*
X69096847Y-109222403D01*
X68910301Y-109299673D01*
X68732500Y-109477475D01*
X68732500Y-109361750D01*
X68573750Y-109203000D01*
X68493690Y-109203000D01*
X68260301Y-109299673D01*
X68081673Y-109478302D01*
X67985000Y-109711691D01*
X67985000Y-110302250D01*
X68143750Y-110461000D01*
X68732500Y-110461000D01*
X68732500Y-110399750D01*
X68793750Y-110461000D01*
X69642000Y-110461000D01*
X69642000Y-110715000D01*
X68793750Y-110715000D01*
X68732500Y-110776250D01*
X68732500Y-110715000D01*
X68143750Y-110715000D01*
X67985000Y-110873750D01*
X67985000Y-111464309D01*
X68081673Y-111697698D01*
X68260301Y-111876327D01*
X68493690Y-111973000D01*
X68573750Y-111973000D01*
X68732500Y-111814250D01*
X68732500Y-111698525D01*
X68910301Y-111876327D01*
X69096847Y-111953597D01*
X69116250Y-111973000D01*
X69223750Y-111973000D01*
X69243153Y-111953597D01*
X69429699Y-111876327D01*
X69495000Y-111811026D01*
X69560301Y-111876327D01*
X69746847Y-111953597D01*
X69766250Y-111973000D01*
X69873750Y-111973000D01*
X69893153Y-111953597D01*
X70079699Y-111876327D01*
X70141956Y-111814070D01*
X70230185Y-111874355D01*
X70162004Y-111976395D01*
X70104000Y-112268000D01*
X70104000Y-112903000D01*
X60710000Y-112903000D01*
X60710000Y-101282320D01*
X66998285Y-101282320D01*
X67127533Y-101575123D01*
X67827806Y-101843388D01*
X68577435Y-101823250D01*
X69176467Y-101575123D01*
X69305715Y-101282320D01*
X68152000Y-100128605D01*
X66998285Y-101282320D01*
X60710000Y-101282320D01*
X60710000Y-99624806D01*
X66257612Y-99624806D01*
X66277750Y-100374435D01*
X66525877Y-100973467D01*
X66818680Y-101102715D01*
X67972395Y-99949000D01*
X68331605Y-99949000D01*
X69485320Y-101102715D01*
X69778123Y-100973467D01*
X70046388Y-100273194D01*
X70026250Y-99523565D01*
X69778123Y-98924533D01*
X69485320Y-98795285D01*
X68331605Y-99949000D01*
X67972395Y-99949000D01*
X66818680Y-98795285D01*
X66525877Y-98924533D01*
X66257612Y-99624806D01*
X60710000Y-99624806D01*
X60710000Y-98006599D01*
X61002699Y-98006599D01*
X61266281Y-98644515D01*
X61753918Y-99133004D01*
X62391373Y-99397699D01*
X63081599Y-99398301D01*
X63719515Y-99134719D01*
X64208004Y-98647082D01*
X64221043Y-98615680D01*
X66998285Y-98615680D01*
X68152000Y-99769395D01*
X69305715Y-98615680D01*
X69176467Y-98322877D01*
X68476194Y-98054612D01*
X67726565Y-98074750D01*
X67127533Y-98322877D01*
X66998285Y-98615680D01*
X64221043Y-98615680D01*
X64472699Y-98009627D01*
X64473301Y-97319401D01*
X64209719Y-96681485D01*
X63722082Y-96192996D01*
X63084627Y-95928301D01*
X62394401Y-95927699D01*
X61756485Y-96191281D01*
X61267996Y-96678918D01*
X61003301Y-97316373D01*
X61002699Y-98006599D01*
X60710000Y-98006599D01*
X60710000Y-95710000D01*
X70485000Y-95710000D01*
X70485000Y-105312174D01*
G36*
X95141060Y-95902700D02*
X95141060Y-96672510D01*
X94858310Y-96955260D01*
X94288500Y-96955260D01*
X94053183Y-96999538D01*
X93837059Y-97138610D01*
X93692069Y-97350810D01*
X93642856Y-97593832D01*
X93366995Y-97648704D01*
X93119784Y-97813885D01*
X92623057Y-98310613D01*
X92529037Y-98310531D01*
X92169488Y-98459093D01*
X91894160Y-98733941D01*
X91744970Y-99093230D01*
X91744631Y-99482263D01*
X91893193Y-99841812D01*
X92168041Y-100117140D01*
X92527330Y-100266330D01*
X92916363Y-100266669D01*
X93275912Y-100118107D01*
X93551240Y-99843259D01*
X93700430Y-99483970D01*
X93700513Y-99388417D01*
X93711013Y-99377917D01*
X93824410Y-99554141D01*
X94036610Y-99699131D01*
X94288500Y-99750140D01*
X95788500Y-99750140D01*
X96023817Y-99705862D01*
X96239941Y-99566790D01*
X96384931Y-99354590D01*
X96435940Y-99102700D01*
X96435940Y-98434325D01*
X96723095Y-98721982D01*
X97121733Y-98887511D01*
X97553373Y-98887888D01*
X97952300Y-98723054D01*
X98257782Y-98418105D01*
X98423311Y-98019467D01*
X98423688Y-97587827D01*
X98258854Y-97188900D01*
X97953905Y-96883418D01*
X97635940Y-96751387D01*
X97635940Y-95902700D01*
X97599681Y-95710000D01*
X99380083Y-95710000D01*
X99341060Y-95902700D01*
X99341060Y-96751628D01*
X99024700Y-96882346D01*
X98719218Y-97187295D01*
X98553689Y-97585933D01*
X98553312Y-98017573D01*
X98718146Y-98416500D01*
X99023095Y-98721982D01*
X99421733Y-98887511D01*
X99652508Y-98887713D01*
X99641160Y-98899041D01*
X99491970Y-99258330D01*
X99491631Y-99647363D01*
X99640193Y-100006912D01*
X99915041Y-100282240D01*
X100274330Y-100431430D01*
X100663363Y-100431769D01*
X101022912Y-100283207D01*
X101298240Y-100008359D01*
X101405462Y-99750140D01*
X102688500Y-99750140D01*
X102923817Y-99705862D01*
X103139941Y-99566790D01*
X103284931Y-99354590D01*
X103335940Y-99102700D01*
X103335940Y-98133599D01*
X105452699Y-98133599D01*
X105716281Y-98771515D01*
X106203918Y-99260004D01*
X106841373Y-99524699D01*
X107531599Y-99525301D01*
X108169515Y-99261719D01*
X108658004Y-98774082D01*
X108922699Y-98136627D01*
X108923301Y-97446401D01*
X108659719Y-96808485D01*
X108172082Y-96319996D01*
X107534627Y-96055301D01*
X106844401Y-96054699D01*
X106206485Y-96318281D01*
X105717996Y-96805918D01*
X105453301Y-97443373D01*
X105452699Y-98133599D01*
X103335940Y-98133599D01*
X103335940Y-97602700D01*
X103291662Y-97367383D01*
X103152590Y-97151259D01*
X102940390Y-97006269D01*
X102688500Y-96955260D01*
X101835940Y-96955260D01*
X101835940Y-95902700D01*
X101799681Y-95710000D01*
X109290000Y-95710000D01*
X109290000Y-108504734D01*
X108866024Y-108420400D01*
X108260776Y-108420400D01*
X107826430Y-108506797D01*
X107458210Y-108752834D01*
X107212173Y-109121054D01*
X107125776Y-109555400D01*
X107212173Y-109989746D01*
X107458210Y-110357966D01*
X107826430Y-110604003D01*
X108260776Y-110690400D01*
X108866024Y-110690400D01*
X109290000Y-110606066D01*
X109290000Y-115504734D01*
X108866024Y-115420400D01*
X108260776Y-115420400D01*
X107826430Y-115506797D01*
X107458210Y-115752834D01*
X107212173Y-116121054D01*
X107125776Y-116555400D01*
X107212173Y-116989746D01*
X107458210Y-117357966D01*
X107826430Y-117604003D01*
X108260776Y-117690400D01*
X108866024Y-117690400D01*
X109290000Y-117606066D01*
X109290000Y-134290000D01*
X81915000Y-134290000D01*
X81915000Y-131933950D01*
X82538200Y-131933950D01*
X82538200Y-132624509D01*
X82634873Y-132857898D01*
X82813501Y-133036527D01*
X83046890Y-133133200D01*
X83737450Y-133133200D01*
X83896200Y-132974450D01*
X83896200Y-131775200D01*
X82696950Y-131775200D01*
X82538200Y-131933950D01*
X81915000Y-131933950D01*
X81915000Y-130671891D01*
X82538200Y-130671891D01*
X82538200Y-131362450D01*
X82696950Y-131521200D01*
X83896200Y-131521200D01*
X83896200Y-130321950D01*
X84150200Y-130321950D01*
X84150200Y-131521200D01*
X84170200Y-131521200D01*
X84170200Y-131775200D01*
X84150200Y-131775200D01*
X84150200Y-132974450D01*
X84308950Y-133133200D01*
X84999510Y-133133200D01*
X85232899Y-133036527D01*
X85411527Y-132857898D01*
X85483797Y-132683423D01*
X85513146Y-132727347D01*
X85994915Y-133049254D01*
X86563200Y-133162293D01*
X87131485Y-133049254D01*
X87613254Y-132727347D01*
X87833200Y-132398174D01*
X88053146Y-132727347D01*
X88534915Y-133049254D01*
X89103200Y-133162293D01*
X89671485Y-133049254D01*
X90153254Y-132727347D01*
X90373200Y-132398174D01*
X90593146Y-132727347D01*
X91074915Y-133049254D01*
X91643200Y-133162293D01*
X92211485Y-133049254D01*
X92693254Y-132727347D01*
X93015161Y-132245578D01*
X93064516Y-131997450D01*
X93815800Y-131997450D01*
X93815800Y-132688009D01*
X93912473Y-132921398D01*
X94091101Y-133100027D01*
X94324490Y-133196700D01*
X95015050Y-133196700D01*
X95173800Y-133037950D01*
X95173800Y-131838700D01*
X93974550Y-131838700D01*
X93815800Y-131997450D01*
X93064516Y-131997450D01*
X93128200Y-131677293D01*
X93128200Y-131619107D01*
X93015161Y-131050822D01*
X92804398Y-130735391D01*
X93815800Y-130735391D01*
X93815800Y-131425950D01*
X93974550Y-131584700D01*
X95173800Y-131584700D01*
X95173800Y-130385450D01*
X95427800Y-130385450D01*
X95427800Y-131584700D01*
X95447800Y-131584700D01*
X95447800Y-131838700D01*
X95427800Y-131838700D01*
X95427800Y-133037950D01*
X95586550Y-133196700D01*
X96277110Y-133196700D01*
X96510499Y-133100027D01*
X96689127Y-132921398D01*
X96761397Y-132746923D01*
X96790746Y-132790847D01*
X97272515Y-133112754D01*
X97840800Y-133225793D01*
X98409085Y-133112754D01*
X98890854Y-132790847D01*
X99110800Y-132461674D01*
X99330746Y-132790847D01*
X99812515Y-133112754D01*
X100380800Y-133225793D01*
X100949085Y-133112754D01*
X101430854Y-132790847D01*
X101650800Y-132461674D01*
X101870746Y-132790847D01*
X102352515Y-133112754D01*
X102920800Y-133225793D01*
X103489085Y-133112754D01*
X103970854Y-132790847D01*
X104046523Y-132677599D01*
X105579699Y-132677599D01*
X105843281Y-133315515D01*
X106330918Y-133804004D01*
X106968373Y-134068699D01*
X107658599Y-134069301D01*
X108296515Y-133805719D01*
X108785004Y-133318082D01*
X109049699Y-132680627D01*
X109050301Y-131990401D01*
X108786719Y-131352485D01*
X108299082Y-130863996D01*
X107661627Y-130599301D01*
X106971401Y-130598699D01*
X106333485Y-130862281D01*
X105844996Y-131349918D01*
X105580301Y-131987373D01*
X105579699Y-132677599D01*
X104046523Y-132677599D01*
X104292761Y-132309078D01*
X104405800Y-131740793D01*
X104405800Y-131682607D01*
X104292761Y-131114322D01*
X103970854Y-130632553D01*
X103489085Y-130310646D01*
X102920800Y-130197607D01*
X102352515Y-130310646D01*
X101870746Y-130632553D01*
X101650800Y-130961726D01*
X101430854Y-130632553D01*
X100949085Y-130310646D01*
X100380800Y-130197607D01*
X99812515Y-130310646D01*
X99330746Y-130632553D01*
X99110800Y-130961726D01*
X98890854Y-130632553D01*
X98409085Y-130310646D01*
X97840800Y-130197607D01*
X97272515Y-130310646D01*
X96790746Y-130632553D01*
X96761397Y-130676477D01*
X96689127Y-130502002D01*
X96510499Y-130323373D01*
X96277110Y-130226700D01*
X95586550Y-130226700D01*
X95427800Y-130385450D01*
X95173800Y-130385450D01*
X95015050Y-130226700D01*
X94324490Y-130226700D01*
X94091101Y-130323373D01*
X93912473Y-130502002D01*
X93815800Y-130735391D01*
X92804398Y-130735391D01*
X92693254Y-130569053D01*
X92211485Y-130247146D01*
X91643200Y-130134107D01*
X91074915Y-130247146D01*
X90593146Y-130569053D01*
X90373200Y-130898226D01*
X90153254Y-130569053D01*
X89671485Y-130247146D01*
X89103200Y-130134107D01*
X88534915Y-130247146D01*
X88053146Y-130569053D01*
X87833200Y-130898226D01*
X87613254Y-130569053D01*
X87131485Y-130247146D01*
X86563200Y-130134107D01*
X85994915Y-130247146D01*
X85513146Y-130569053D01*
X85483797Y-130612977D01*
X85411527Y-130438502D01*
X85232899Y-130259873D01*
X84999510Y-130163200D01*
X84308950Y-130163200D01*
X84150200Y-130321950D01*
X83896200Y-130321950D01*
X83737450Y-130163200D01*
X83046890Y-130163200D01*
X82813501Y-130259873D01*
X82634873Y-130438502D01*
X82538200Y-130671891D01*
X81915000Y-130671891D01*
X81915000Y-126043026D01*
X82028302Y-126156327D01*
X82261691Y-126253000D01*
X82852250Y-126253000D01*
X83011000Y-126094250D01*
X83011000Y-125095000D01*
X83265000Y-125095000D01*
X83265000Y-126094250D01*
X83423750Y-126253000D01*
X84014309Y-126253000D01*
X84247698Y-126156327D01*
X84426327Y-125977699D01*
X84523000Y-125744310D01*
X84523000Y-125253750D01*
X84364250Y-125095000D01*
X83265000Y-125095000D01*
X83011000Y-125095000D01*
X82991000Y-125095000D01*
X82991000Y-124841000D01*
X83011000Y-124841000D01*
X83011000Y-124821000D01*
X83265000Y-124821000D01*
X83265000Y-124841000D01*
X84364250Y-124841000D01*
X84523000Y-124682250D01*
X84523000Y-124191690D01*
X84426327Y-123958301D01*
X84247698Y-123779673D01*
X84049259Y-123697477D01*
X84177431Y-123509890D01*
X84204544Y-123376000D01*
X106398560Y-123376000D01*
X106398560Y-124876000D01*
X106442838Y-125111317D01*
X106581910Y-125327441D01*
X106794110Y-125472431D01*
X106807197Y-125475081D01*
X106594559Y-125611910D01*
X106449569Y-125824110D01*
X106398560Y-126076000D01*
X106398560Y-127576000D01*
X106442838Y-127811317D01*
X106581910Y-128027441D01*
X106794110Y-128172431D01*
X106934000Y-128200759D01*
X106934000Y-128664917D01*
X106867460Y-128731341D01*
X106718270Y-129090630D01*
X106717931Y-129479663D01*
X106866493Y-129839212D01*
X107141341Y-130114540D01*
X107500630Y-130263730D01*
X107889663Y-130264069D01*
X108249212Y-130115507D01*
X108524540Y-129840659D01*
X108673730Y-129481370D01*
X108674069Y-129092337D01*
X108525507Y-128732788D01*
X108458000Y-128665163D01*
X108458000Y-128202366D01*
X108581317Y-128179162D01*
X108797441Y-128040090D01*
X108942431Y-127827890D01*
X108993440Y-127576000D01*
X108993440Y-126076000D01*
X108949162Y-125840683D01*
X108810090Y-125624559D01*
X108597890Y-125479569D01*
X108584803Y-125476919D01*
X108797441Y-125340090D01*
X108942431Y-125127890D01*
X108993440Y-124876000D01*
X108993440Y-123376000D01*
X108949162Y-123140683D01*
X108810090Y-122924559D01*
X108597890Y-122779569D01*
X108458000Y-122751241D01*
X108458000Y-122712958D01*
X108531317Y-122699162D01*
X108747441Y-122560090D01*
X108892431Y-122347890D01*
X108943440Y-122096000D01*
X108943440Y-120896000D01*
X108899162Y-120660683D01*
X108760090Y-120444559D01*
X108691994Y-120398031D01*
X108834327Y-120255698D01*
X108931000Y-120022309D01*
X108931000Y-119581750D01*
X108772250Y-119423000D01*
X107823000Y-119423000D01*
X107823000Y-119443000D01*
X107569000Y-119443000D01*
X107569000Y-119423000D01*
X106619750Y-119423000D01*
X106461000Y-119581750D01*
X106461000Y-120022309D01*
X106557673Y-120255698D01*
X106698910Y-120396936D01*
X106644559Y-120431910D01*
X106499569Y-120644110D01*
X106448560Y-120896000D01*
X106448560Y-122096000D01*
X106492838Y-122331317D01*
X106631910Y-122547441D01*
X106844110Y-122692431D01*
X106934000Y-122710634D01*
X106934000Y-122749634D01*
X106810683Y-122772838D01*
X106594559Y-122911910D01*
X106449569Y-123124110D01*
X106398560Y-123376000D01*
X84204544Y-123376000D01*
X84228440Y-123258000D01*
X84228440Y-121758000D01*
X84184162Y-121522683D01*
X84045090Y-121306559D01*
X83832890Y-121161569D01*
X83819803Y-121158919D01*
X84032441Y-121022090D01*
X84177431Y-120809890D01*
X84228440Y-120558000D01*
X84228440Y-119964200D01*
X86817200Y-119964200D01*
X87108805Y-119906196D01*
X87356015Y-119741015D01*
X88032015Y-119065016D01*
X88197196Y-118817805D01*
X88227912Y-118663384D01*
X88255200Y-118526200D01*
X88255200Y-118244600D01*
X88270202Y-118244600D01*
X88270202Y-118137852D01*
X88376950Y-118244600D01*
X88419510Y-118244600D01*
X88472789Y-118222531D01*
X88643200Y-118257040D01*
X88943200Y-118257040D01*
X89124624Y-118222903D01*
X89293200Y-118257040D01*
X89593200Y-118257040D01*
X89767668Y-118224212D01*
X89816890Y-118244600D01*
X89859450Y-118244600D01*
X90004584Y-118099466D01*
X90044641Y-118073690D01*
X90168200Y-117892855D01*
X90168200Y-118085850D01*
X90326950Y-118244600D01*
X90369510Y-118244600D01*
X90602899Y-118147927D01*
X90781527Y-117969298D01*
X90878200Y-117735909D01*
X90878200Y-117520350D01*
X90719450Y-117361600D01*
X90240640Y-117361600D01*
X90240640Y-117298371D01*
X90291891Y-117319600D01*
X90507450Y-117319600D01*
X90666200Y-117160850D01*
X90666200Y-117107600D01*
X90719450Y-117107600D01*
X90878200Y-116948850D01*
X90878200Y-116733291D01*
X90856971Y-116682040D01*
X90920200Y-116682040D01*
X90920200Y-117160850D01*
X91078950Y-117319600D01*
X91294509Y-117319600D01*
X91338400Y-117301420D01*
X91338400Y-119681075D01*
X91191890Y-119580969D01*
X90940000Y-119529960D01*
X89440000Y-119529960D01*
X89204683Y-119574238D01*
X88988559Y-119713310D01*
X88843569Y-119925510D01*
X88836582Y-119960011D01*
X88663570Y-119888170D01*
X88274537Y-119887831D01*
X87914988Y-120036393D01*
X87639660Y-120311241D01*
X87490470Y-120670530D01*
X87490131Y-121059563D01*
X87638693Y-121419112D01*
X87913541Y-121694440D01*
X88272830Y-121843630D01*
X88661863Y-121843969D01*
X88892222Y-121748787D01*
X88975910Y-121878841D01*
X89188110Y-122023831D01*
X89440000Y-122074840D01*
X90940000Y-122074840D01*
X91175317Y-122030562D01*
X91391441Y-121891490D01*
X91439134Y-121821689D01*
X91475910Y-121878841D01*
X91688110Y-122023831D01*
X91940000Y-122074840D01*
X93440000Y-122074840D01*
X93675317Y-122030562D01*
X93891441Y-121891490D01*
X94036431Y-121679290D01*
X94087440Y-121427400D01*
X94087440Y-120177400D01*
X94043162Y-119942083D01*
X93904090Y-119725959D01*
X93691890Y-119580969D01*
X93440000Y-119529960D01*
X92862400Y-119529960D01*
X92862400Y-118628831D01*
X93232584Y-118999015D01*
X93331362Y-119065016D01*
X93479795Y-119164196D01*
X93771400Y-119222200D01*
X95122818Y-119222200D01*
X95164838Y-119445517D01*
X95303910Y-119661641D01*
X95373711Y-119709334D01*
X95316559Y-119746110D01*
X95171569Y-119958310D01*
X95120560Y-120210200D01*
X95120560Y-121710200D01*
X95164838Y-121945517D01*
X95303910Y-122161641D01*
X95516110Y-122306631D01*
X95768000Y-122357640D01*
X97018000Y-122357640D01*
X97253317Y-122313362D01*
X97469441Y-122174290D01*
X97557627Y-122045226D01*
X97640710Y-122174341D01*
X97852910Y-122319331D01*
X98104800Y-122370340D01*
X99354800Y-122370340D01*
X99590117Y-122326062D01*
X99806241Y-122186990D01*
X99951231Y-121974790D01*
X99988083Y-121792810D01*
X100029341Y-121834140D01*
X100388630Y-121983330D01*
X100777663Y-121983669D01*
X101137212Y-121835107D01*
X101412540Y-121560259D01*
X101561730Y-121200970D01*
X101562069Y-120811937D01*
X101413507Y-120452388D01*
X101138659Y-120177060D01*
X100779370Y-120027870D01*
X100390337Y-120027531D01*
X100030788Y-120176093D01*
X99999340Y-120207486D01*
X99957962Y-119987583D01*
X99818890Y-119771459D01*
X99749089Y-119723766D01*
X99806241Y-119686990D01*
X99951231Y-119474790D01*
X100002240Y-119222900D01*
X100002240Y-118569691D01*
X106461000Y-118569691D01*
X106461000Y-119010250D01*
X106619750Y-119169000D01*
X107569000Y-119169000D01*
X107569000Y-118219750D01*
X107823000Y-118219750D01*
X107823000Y-119169000D01*
X108772250Y-119169000D01*
X108931000Y-119010250D01*
X108931000Y-118569691D01*
X108834327Y-118336302D01*
X108655699Y-118157673D01*
X108422310Y-118061000D01*
X107981750Y-118061000D01*
X107823000Y-118219750D01*
X107569000Y-118219750D01*
X107410250Y-118061000D01*
X106969690Y-118061000D01*
X106736301Y-118157673D01*
X106557673Y-118336302D01*
X106461000Y-118569691D01*
X100002240Y-118569691D01*
X100002240Y-118530379D01*
X100133400Y-118556940D01*
X101633400Y-118556940D01*
X101868717Y-118512662D01*
X102084841Y-118373590D01*
X102132534Y-118303789D01*
X102169310Y-118360941D01*
X102381510Y-118505931D01*
X102633400Y-118556940D01*
X104133400Y-118556940D01*
X104368717Y-118512662D01*
X104584841Y-118373590D01*
X104729831Y-118161390D01*
X104780840Y-117909500D01*
X104780840Y-116659500D01*
X104736562Y-116424183D01*
X104597490Y-116208059D01*
X104385290Y-116063069D01*
X104145400Y-116014490D01*
X104145400Y-115956430D01*
X104761416Y-115340414D01*
X104753400Y-115380715D01*
X104753400Y-115730085D01*
X104837894Y-116154864D01*
X105078511Y-116514974D01*
X105438621Y-116755591D01*
X105863400Y-116840085D01*
X106288179Y-116755591D01*
X106648289Y-116514974D01*
X106888906Y-116154864D01*
X106973400Y-115730085D01*
X106973400Y-115380715D01*
X106911567Y-115069858D01*
X106989841Y-115019490D01*
X107134831Y-114807290D01*
X107185840Y-114555400D01*
X107185840Y-114155400D01*
X107161456Y-114025811D01*
X107185840Y-113905400D01*
X107185840Y-113505400D01*
X107161456Y-113375811D01*
X107185840Y-113255400D01*
X107185840Y-112855400D01*
X107161456Y-112725811D01*
X107185840Y-112605400D01*
X107185840Y-112517400D01*
X107400569Y-112517400D01*
X107496941Y-112613940D01*
X107856230Y-112763130D01*
X108245263Y-112763469D01*
X108604812Y-112614907D01*
X108880140Y-112340059D01*
X109029330Y-111980770D01*
X109029669Y-111591737D01*
X108881107Y-111232188D01*
X108606259Y-110956860D01*
X108246970Y-110807670D01*
X107857937Y-110807331D01*
X107498388Y-110955893D01*
X107460815Y-110993400D01*
X106921023Y-110993400D01*
X106973400Y-110730085D01*
X106973400Y-110380715D01*
X106888906Y-109955936D01*
X106648289Y-109595826D01*
X106288179Y-109355209D01*
X105863400Y-109270715D01*
X105438621Y-109355209D01*
X105078511Y-109595826D01*
X104837894Y-109955936D01*
X104753400Y-110380715D01*
X104753400Y-110730085D01*
X104815233Y-111040942D01*
X104736959Y-111091310D01*
X104591969Y-111303510D01*
X104540960Y-111555400D01*
X104540960Y-111955400D01*
X104565344Y-112084989D01*
X104540960Y-112205400D01*
X104540960Y-112293400D01*
X104538780Y-112293400D01*
X104538780Y-110777347D01*
X104574080Y-110603030D01*
X104574080Y-110153450D01*
X104529802Y-109918133D01*
X104390730Y-109702009D01*
X104356731Y-109678778D01*
X104378081Y-109665040D01*
X104523071Y-109452840D01*
X104574080Y-109200950D01*
X104574080Y-108751370D01*
X104529802Y-108516053D01*
X104390730Y-108299929D01*
X104178530Y-108154939D01*
X103987600Y-108116275D01*
X103987600Y-107986839D01*
X104079540Y-107895059D01*
X104228730Y-107535770D01*
X104229069Y-107146737D01*
X104080507Y-106787188D01*
X103805659Y-106511860D01*
X103446370Y-106362670D01*
X103057337Y-106362331D01*
X102697788Y-106510893D01*
X102422460Y-106785741D01*
X102273270Y-107145030D01*
X102272931Y-107534063D01*
X102421493Y-107893612D01*
X102565200Y-108037570D01*
X102565200Y-108115400D01*
X102390843Y-108148208D01*
X102174719Y-108287280D01*
X102029729Y-108499480D01*
X101978720Y-108751370D01*
X101978720Y-109200950D01*
X102022998Y-109436267D01*
X102162070Y-109652391D01*
X102196069Y-109675622D01*
X102174719Y-109689360D01*
X102029729Y-109901560D01*
X101978720Y-110153450D01*
X101978720Y-110603030D01*
X102014020Y-110790633D01*
X102014020Y-111029710D01*
X101939860Y-111103741D01*
X101790670Y-111463030D01*
X101790331Y-111852063D01*
X101885578Y-112082580D01*
X98609811Y-112082580D01*
X98022840Y-111495609D01*
X98022840Y-110525800D01*
X97978562Y-110290483D01*
X97839490Y-110074359D01*
X97627290Y-109929369D01*
X97375400Y-109878360D01*
X95875400Y-109878360D01*
X95640083Y-109922638D01*
X95423959Y-110061710D01*
X95278969Y-110273910D01*
X95276319Y-110286997D01*
X95139490Y-110074359D01*
X94927290Y-109929369D01*
X94675400Y-109878360D01*
X93175400Y-109878360D01*
X92940083Y-109922638D01*
X92723959Y-110061710D01*
X92633800Y-110193662D01*
X92633800Y-108789818D01*
X92921854Y-108597347D01*
X92951203Y-108553423D01*
X93023473Y-108727898D01*
X93202101Y-108906527D01*
X93435490Y-109003200D01*
X94126050Y-109003200D01*
X94284800Y-108844450D01*
X94284800Y-107645200D01*
X94538800Y-107645200D01*
X94538800Y-108844450D01*
X94697550Y-109003200D01*
X95388110Y-109003200D01*
X95621499Y-108906527D01*
X95800127Y-108727898D01*
X95896800Y-108494509D01*
X95896800Y-107803950D01*
X95738050Y-107645200D01*
X94538800Y-107645200D01*
X94284800Y-107645200D01*
X94264800Y-107645200D01*
X94264800Y-107391200D01*
X94284800Y-107391200D01*
X94284800Y-106191950D01*
X94538800Y-106191950D01*
X94538800Y-107391200D01*
X95738050Y-107391200D01*
X95896800Y-107232450D01*
X95896800Y-106541891D01*
X95800127Y-106308502D01*
X95621499Y-106129873D01*
X95388110Y-106033200D01*
X94697550Y-106033200D01*
X94538800Y-106191950D01*
X94284800Y-106191950D01*
X94126050Y-106033200D01*
X93435490Y-106033200D01*
X93202101Y-106129873D01*
X93023473Y-106308502D01*
X92951203Y-106482977D01*
X92921854Y-106439053D01*
X92440085Y-106117146D01*
X91871800Y-106004107D01*
X91303515Y-106117146D01*
X90821746Y-106439053D01*
X90601800Y-106768226D01*
X90381854Y-106439053D01*
X89900085Y-106117146D01*
X89331800Y-106004107D01*
X88763515Y-106117146D01*
X88281746Y-106439053D01*
X88061800Y-106768226D01*
X87841854Y-106439053D01*
X87360085Y-106117146D01*
X86791800Y-106004107D01*
X86223515Y-106117146D01*
X85741746Y-106439053D01*
X85419839Y-106920822D01*
X85306800Y-107489107D01*
X85306800Y-107547293D01*
X85419839Y-108115578D01*
X85741746Y-108597347D01*
X86223515Y-108919254D01*
X86791800Y-109032293D01*
X87360085Y-108919254D01*
X87841854Y-108597347D01*
X88061800Y-108268174D01*
X88281746Y-108597347D01*
X88681200Y-108864253D01*
X88681200Y-110020219D01*
X88350737Y-110019931D01*
X87991188Y-110168493D01*
X87715860Y-110443341D01*
X87566670Y-110802630D01*
X87566331Y-111191663D01*
X87714893Y-111551212D01*
X87746756Y-111583131D01*
X87643200Y-111562160D01*
X87343200Y-111562160D01*
X87161776Y-111596297D01*
X86993200Y-111562160D01*
X86693200Y-111562160D01*
X86457883Y-111606438D01*
X86241759Y-111745510D01*
X86096769Y-111957710D01*
X86045760Y-112209600D01*
X86045760Y-112487160D01*
X85768200Y-112487160D01*
X85532883Y-112531438D01*
X85316759Y-112670510D01*
X85171769Y-112882710D01*
X85120760Y-113134600D01*
X85120760Y-113434600D01*
X85132721Y-113498169D01*
X85037584Y-113434600D01*
X84899005Y-113342004D01*
X84607400Y-113284000D01*
X84134174Y-113284000D01*
X84045090Y-113145559D01*
X83874291Y-113028857D01*
X84032441Y-112927090D01*
X84177431Y-112714890D01*
X84228440Y-112463000D01*
X84228440Y-110963000D01*
X84184162Y-110727683D01*
X84045090Y-110511559D01*
X83883467Y-110401127D01*
X83883535Y-110322908D01*
X84032441Y-110227090D01*
X84177431Y-110014890D01*
X84228440Y-109763000D01*
X84228440Y-108263000D01*
X84184162Y-108027683D01*
X84045090Y-107811559D01*
X83832890Y-107666569D01*
X83581000Y-107615560D01*
X82281000Y-107615560D01*
X82045683Y-107659838D01*
X81977495Y-107703716D01*
X81980129Y-107184854D01*
X82136110Y-107291431D01*
X82388000Y-107342440D01*
X83888000Y-107342440D01*
X84123317Y-107298162D01*
X84339441Y-107159090D01*
X84484431Y-106946890D01*
X84535440Y-106695000D01*
X84535440Y-105395000D01*
X84491162Y-105159683D01*
X84352090Y-104943559D01*
X84139890Y-104798569D01*
X83900000Y-104749990D01*
X83900000Y-104372608D01*
X83992212Y-104334507D01*
X84267540Y-104059659D01*
X84416730Y-103700370D01*
X84417069Y-103311337D01*
X84268507Y-102951788D01*
X83993659Y-102676460D01*
X83634370Y-102527270D01*
X83245337Y-102526931D01*
X82885788Y-102675493D01*
X82610460Y-102950341D01*
X82461270Y-103309630D01*
X82461127Y-103473803D01*
X82434004Y-103514395D01*
X82376000Y-103806000D01*
X82376000Y-104749818D01*
X82152683Y-104791838D01*
X81991751Y-104895395D01*
X82038377Y-95710000D01*
X95180083Y-95710000D01*
X95141060Y-95902700D01*
X95141060Y-95902700D01*
G37*
X95141060Y-95902700D02*
X95141060Y-96672510D01*
X94858310Y-96955260D01*
X94288500Y-96955260D01*
X94053183Y-96999538D01*
X93837059Y-97138610D01*
X93692069Y-97350810D01*
X93642856Y-97593832D01*
X93366995Y-97648704D01*
X93119784Y-97813885D01*
X92623057Y-98310613D01*
X92529037Y-98310531D01*
X92169488Y-98459093D01*
X91894160Y-98733941D01*
X91744970Y-99093230D01*
X91744631Y-99482263D01*
X91893193Y-99841812D01*
X92168041Y-100117140D01*
X92527330Y-100266330D01*
X92916363Y-100266669D01*
X93275912Y-100118107D01*
X93551240Y-99843259D01*
X93700430Y-99483970D01*
X93700513Y-99388417D01*
X93711013Y-99377917D01*
X93824410Y-99554141D01*
X94036610Y-99699131D01*
X94288500Y-99750140D01*
X95788500Y-99750140D01*
X96023817Y-99705862D01*
X96239941Y-99566790D01*
X96384931Y-99354590D01*
X96435940Y-99102700D01*
X96435940Y-98434325D01*
X96723095Y-98721982D01*
X97121733Y-98887511D01*
X97553373Y-98887888D01*
X97952300Y-98723054D01*
X98257782Y-98418105D01*
X98423311Y-98019467D01*
X98423688Y-97587827D01*
X98258854Y-97188900D01*
X97953905Y-96883418D01*
X97635940Y-96751387D01*
X97635940Y-95902700D01*
X97599681Y-95710000D01*
X99380083Y-95710000D01*
X99341060Y-95902700D01*
X99341060Y-96751628D01*
X99024700Y-96882346D01*
X98719218Y-97187295D01*
X98553689Y-97585933D01*
X98553312Y-98017573D01*
X98718146Y-98416500D01*
X99023095Y-98721982D01*
X99421733Y-98887511D01*
X99652508Y-98887713D01*
X99641160Y-98899041D01*
X99491970Y-99258330D01*
X99491631Y-99647363D01*
X99640193Y-100006912D01*
X99915041Y-100282240D01*
X100274330Y-100431430D01*
X100663363Y-100431769D01*
X101022912Y-100283207D01*
X101298240Y-100008359D01*
X101405462Y-99750140D01*
X102688500Y-99750140D01*
X102923817Y-99705862D01*
X103139941Y-99566790D01*
X103284931Y-99354590D01*
X103335940Y-99102700D01*
X103335940Y-98133599D01*
X105452699Y-98133599D01*
X105716281Y-98771515D01*
X106203918Y-99260004D01*
X106841373Y-99524699D01*
X107531599Y-99525301D01*
X108169515Y-99261719D01*
X108658004Y-98774082D01*
X108922699Y-98136627D01*
X108923301Y-97446401D01*
X108659719Y-96808485D01*
X108172082Y-96319996D01*
X107534627Y-96055301D01*
X106844401Y-96054699D01*
X106206485Y-96318281D01*
X105717996Y-96805918D01*
X105453301Y-97443373D01*
X105452699Y-98133599D01*
X103335940Y-98133599D01*
X103335940Y-97602700D01*
X103291662Y-97367383D01*
X103152590Y-97151259D01*
X102940390Y-97006269D01*
X102688500Y-96955260D01*
X101835940Y-96955260D01*
X101835940Y-95902700D01*
X101799681Y-95710000D01*
X109290000Y-95710000D01*
X109290000Y-108504734D01*
X108866024Y-108420400D01*
X108260776Y-108420400D01*
X107826430Y-108506797D01*
X107458210Y-108752834D01*
X107212173Y-109121054D01*
X107125776Y-109555400D01*
X107212173Y-109989746D01*
X107458210Y-110357966D01*
X107826430Y-110604003D01*
X108260776Y-110690400D01*
X108866024Y-110690400D01*
X109290000Y-110606066D01*
X109290000Y-115504734D01*
X108866024Y-115420400D01*
X108260776Y-115420400D01*
X107826430Y-115506797D01*
X107458210Y-115752834D01*
X107212173Y-116121054D01*
X107125776Y-116555400D01*
X107212173Y-116989746D01*
X107458210Y-117357966D01*
X107826430Y-117604003D01*
X108260776Y-117690400D01*
X108866024Y-117690400D01*
X109290000Y-117606066D01*
X109290000Y-134290000D01*
X81915000Y-134290000D01*
X81915000Y-131933950D01*
X82538200Y-131933950D01*
X82538200Y-132624509D01*
X82634873Y-132857898D01*
X82813501Y-133036527D01*
X83046890Y-133133200D01*
X83737450Y-133133200D01*
X83896200Y-132974450D01*
X83896200Y-131775200D01*
X82696950Y-131775200D01*
X82538200Y-131933950D01*
X81915000Y-131933950D01*
X81915000Y-130671891D01*
X82538200Y-130671891D01*
X82538200Y-131362450D01*
X82696950Y-131521200D01*
X83896200Y-131521200D01*
X83896200Y-130321950D01*
X84150200Y-130321950D01*
X84150200Y-131521200D01*
X84170200Y-131521200D01*
X84170200Y-131775200D01*
X84150200Y-131775200D01*
X84150200Y-132974450D01*
X84308950Y-133133200D01*
X84999510Y-133133200D01*
X85232899Y-133036527D01*
X85411527Y-132857898D01*
X85483797Y-132683423D01*
X85513146Y-132727347D01*
X85994915Y-133049254D01*
X86563200Y-133162293D01*
X87131485Y-133049254D01*
X87613254Y-132727347D01*
X87833200Y-132398174D01*
X88053146Y-132727347D01*
X88534915Y-133049254D01*
X89103200Y-133162293D01*
X89671485Y-133049254D01*
X90153254Y-132727347D01*
X90373200Y-132398174D01*
X90593146Y-132727347D01*
X91074915Y-133049254D01*
X91643200Y-133162293D01*
X92211485Y-133049254D01*
X92693254Y-132727347D01*
X93015161Y-132245578D01*
X93064516Y-131997450D01*
X93815800Y-131997450D01*
X93815800Y-132688009D01*
X93912473Y-132921398D01*
X94091101Y-133100027D01*
X94324490Y-133196700D01*
X95015050Y-133196700D01*
X95173800Y-133037950D01*
X95173800Y-131838700D01*
X93974550Y-131838700D01*
X93815800Y-131997450D01*
X93064516Y-131997450D01*
X93128200Y-131677293D01*
X93128200Y-131619107D01*
X93015161Y-131050822D01*
X92804398Y-130735391D01*
X93815800Y-130735391D01*
X93815800Y-131425950D01*
X93974550Y-131584700D01*
X95173800Y-131584700D01*
X95173800Y-130385450D01*
X95427800Y-130385450D01*
X95427800Y-131584700D01*
X95447800Y-131584700D01*
X95447800Y-131838700D01*
X95427800Y-131838700D01*
X95427800Y-133037950D01*
X95586550Y-133196700D01*
X96277110Y-133196700D01*
X96510499Y-133100027D01*
X96689127Y-132921398D01*
X96761397Y-132746923D01*
X96790746Y-132790847D01*
X97272515Y-133112754D01*
X97840800Y-133225793D01*
X98409085Y-133112754D01*
X98890854Y-132790847D01*
X99110800Y-132461674D01*
X99330746Y-132790847D01*
X99812515Y-133112754D01*
X100380800Y-133225793D01*
X100949085Y-133112754D01*
X101430854Y-132790847D01*
X101650800Y-132461674D01*
X101870746Y-132790847D01*
X102352515Y-133112754D01*
X102920800Y-133225793D01*
X103489085Y-133112754D01*
X103970854Y-132790847D01*
X104046523Y-132677599D01*
X105579699Y-132677599D01*
X105843281Y-133315515D01*
X106330918Y-133804004D01*
X106968373Y-134068699D01*
X107658599Y-134069301D01*
X108296515Y-133805719D01*
X108785004Y-133318082D01*
X109049699Y-132680627D01*
X109050301Y-131990401D01*
X108786719Y-131352485D01*
X108299082Y-130863996D01*
X107661627Y-130599301D01*
X106971401Y-130598699D01*
X106333485Y-130862281D01*
X105844996Y-131349918D01*
X105580301Y-131987373D01*
X105579699Y-132677599D01*
X104046523Y-132677599D01*
X104292761Y-132309078D01*
X104405800Y-131740793D01*
X104405800Y-131682607D01*
X104292761Y-131114322D01*
X103970854Y-130632553D01*
X103489085Y-130310646D01*
X102920800Y-130197607D01*
X102352515Y-130310646D01*
X101870746Y-130632553D01*
X101650800Y-130961726D01*
X101430854Y-130632553D01*
X100949085Y-130310646D01*
X100380800Y-130197607D01*
X99812515Y-130310646D01*
X99330746Y-130632553D01*
X99110800Y-130961726D01*
X98890854Y-130632553D01*
X98409085Y-130310646D01*
X97840800Y-130197607D01*
X97272515Y-130310646D01*
X96790746Y-130632553D01*
X96761397Y-130676477D01*
X96689127Y-130502002D01*
X96510499Y-130323373D01*
X96277110Y-130226700D01*
X95586550Y-130226700D01*
X95427800Y-130385450D01*
X95173800Y-130385450D01*
X95015050Y-130226700D01*
X94324490Y-130226700D01*
X94091101Y-130323373D01*
X93912473Y-130502002D01*
X93815800Y-130735391D01*
X92804398Y-130735391D01*
X92693254Y-130569053D01*
X92211485Y-130247146D01*
X91643200Y-130134107D01*
X91074915Y-130247146D01*
X90593146Y-130569053D01*
X90373200Y-130898226D01*
X90153254Y-130569053D01*
X89671485Y-130247146D01*
X89103200Y-130134107D01*
X88534915Y-130247146D01*
X88053146Y-130569053D01*
X87833200Y-130898226D01*
X87613254Y-130569053D01*
X87131485Y-130247146D01*
X86563200Y-130134107D01*
X85994915Y-130247146D01*
X85513146Y-130569053D01*
X85483797Y-130612977D01*
X85411527Y-130438502D01*
X85232899Y-130259873D01*
X84999510Y-130163200D01*
X84308950Y-130163200D01*
X84150200Y-130321950D01*
X83896200Y-130321950D01*
X83737450Y-130163200D01*
X83046890Y-130163200D01*
X82813501Y-130259873D01*
X82634873Y-130438502D01*
X82538200Y-130671891D01*
X81915000Y-130671891D01*
X81915000Y-126043026D01*
X82028302Y-126156327D01*
X82261691Y-126253000D01*
X82852250Y-126253000D01*
X83011000Y-126094250D01*
X83011000Y-125095000D01*
X83265000Y-125095000D01*
X83265000Y-126094250D01*
X83423750Y-126253000D01*
X84014309Y-126253000D01*
X84247698Y-126156327D01*
X84426327Y-125977699D01*
X84523000Y-125744310D01*
X84523000Y-125253750D01*
X84364250Y-125095000D01*
X83265000Y-125095000D01*
X83011000Y-125095000D01*
X82991000Y-125095000D01*
X82991000Y-124841000D01*
X83011000Y-124841000D01*
X83011000Y-124821000D01*
X83265000Y-124821000D01*
X83265000Y-124841000D01*
X84364250Y-124841000D01*
X84523000Y-124682250D01*
X84523000Y-124191690D01*
X84426327Y-123958301D01*
X84247698Y-123779673D01*
X84049259Y-123697477D01*
X84177431Y-123509890D01*
X84204544Y-123376000D01*
X106398560Y-123376000D01*
X106398560Y-124876000D01*
X106442838Y-125111317D01*
X106581910Y-125327441D01*
X106794110Y-125472431D01*
X106807197Y-125475081D01*
X106594559Y-125611910D01*
X106449569Y-125824110D01*
X106398560Y-126076000D01*
X106398560Y-127576000D01*
X106442838Y-127811317D01*
X106581910Y-128027441D01*
X106794110Y-128172431D01*
X106934000Y-128200759D01*
X106934000Y-128664917D01*
X106867460Y-128731341D01*
X106718270Y-129090630D01*
X106717931Y-129479663D01*
X106866493Y-129839212D01*
X107141341Y-130114540D01*
X107500630Y-130263730D01*
X107889663Y-130264069D01*
X108249212Y-130115507D01*
X108524540Y-129840659D01*
X108673730Y-129481370D01*
X108674069Y-129092337D01*
X108525507Y-128732788D01*
X108458000Y-128665163D01*
X108458000Y-128202366D01*
X108581317Y-128179162D01*
X108797441Y-128040090D01*
X108942431Y-127827890D01*
X108993440Y-127576000D01*
X108993440Y-126076000D01*
X108949162Y-125840683D01*
X108810090Y-125624559D01*
X108597890Y-125479569D01*
X108584803Y-125476919D01*
X108797441Y-125340090D01*
X108942431Y-125127890D01*
X108993440Y-124876000D01*
X108993440Y-123376000D01*
X108949162Y-123140683D01*
X108810090Y-122924559D01*
X108597890Y-122779569D01*
X108458000Y-122751241D01*
X108458000Y-122712958D01*
X108531317Y-122699162D01*
X108747441Y-122560090D01*
X108892431Y-122347890D01*
X108943440Y-122096000D01*
X108943440Y-120896000D01*
X108899162Y-120660683D01*
X108760090Y-120444559D01*
X108691994Y-120398031D01*
X108834327Y-120255698D01*
X108931000Y-120022309D01*
X108931000Y-119581750D01*
X108772250Y-119423000D01*
X107823000Y-119423000D01*
X107823000Y-119443000D01*
X107569000Y-119443000D01*
X107569000Y-119423000D01*
X106619750Y-119423000D01*
X106461000Y-119581750D01*
X106461000Y-120022309D01*
X106557673Y-120255698D01*
X106698910Y-120396936D01*
X106644559Y-120431910D01*
X106499569Y-120644110D01*
X106448560Y-120896000D01*
X106448560Y-122096000D01*
X106492838Y-122331317D01*
X106631910Y-122547441D01*
X106844110Y-122692431D01*
X106934000Y-122710634D01*
X106934000Y-122749634D01*
X106810683Y-122772838D01*
X106594559Y-122911910D01*
X106449569Y-123124110D01*
X106398560Y-123376000D01*
X84204544Y-123376000D01*
X84228440Y-123258000D01*
X84228440Y-121758000D01*
X84184162Y-121522683D01*
X84045090Y-121306559D01*
X83832890Y-121161569D01*
X83819803Y-121158919D01*
X84032441Y-121022090D01*
X84177431Y-120809890D01*
X84228440Y-120558000D01*
X84228440Y-119964200D01*
X86817200Y-119964200D01*
X87108805Y-119906196D01*
X87356015Y-119741015D01*
X88032015Y-119065016D01*
X88197196Y-118817805D01*
X88227912Y-118663384D01*
X88255200Y-118526200D01*
X88255200Y-118244600D01*
X88270202Y-118244600D01*
X88270202Y-118137852D01*
X88376950Y-118244600D01*
X88419510Y-118244600D01*
X88472789Y-118222531D01*
X88643200Y-118257040D01*
X88943200Y-118257040D01*
X89124624Y-118222903D01*
X89293200Y-118257040D01*
X89593200Y-118257040D01*
X89767668Y-118224212D01*
X89816890Y-118244600D01*
X89859450Y-118244600D01*
X90004584Y-118099466D01*
X90044641Y-118073690D01*
X90168200Y-117892855D01*
X90168200Y-118085850D01*
X90326950Y-118244600D01*
X90369510Y-118244600D01*
X90602899Y-118147927D01*
X90781527Y-117969298D01*
X90878200Y-117735909D01*
X90878200Y-117520350D01*
X90719450Y-117361600D01*
X90240640Y-117361600D01*
X90240640Y-117298371D01*
X90291891Y-117319600D01*
X90507450Y-117319600D01*
X90666200Y-117160850D01*
X90666200Y-117107600D01*
X90719450Y-117107600D01*
X90878200Y-116948850D01*
X90878200Y-116733291D01*
X90856971Y-116682040D01*
X90920200Y-116682040D01*
X90920200Y-117160850D01*
X91078950Y-117319600D01*
X91294509Y-117319600D01*
X91338400Y-117301420D01*
X91338400Y-119681075D01*
X91191890Y-119580969D01*
X90940000Y-119529960D01*
X89440000Y-119529960D01*
X89204683Y-119574238D01*
X88988559Y-119713310D01*
X88843569Y-119925510D01*
X88836582Y-119960011D01*
X88663570Y-119888170D01*
X88274537Y-119887831D01*
X87914988Y-120036393D01*
X87639660Y-120311241D01*
X87490470Y-120670530D01*
X87490131Y-121059563D01*
X87638693Y-121419112D01*
X87913541Y-121694440D01*
X88272830Y-121843630D01*
X88661863Y-121843969D01*
X88892222Y-121748787D01*
X88975910Y-121878841D01*
X89188110Y-122023831D01*
X89440000Y-122074840D01*
X90940000Y-122074840D01*
X91175317Y-122030562D01*
X91391441Y-121891490D01*
X91439134Y-121821689D01*
X91475910Y-121878841D01*
X91688110Y-122023831D01*
X91940000Y-122074840D01*
X93440000Y-122074840D01*
X93675317Y-122030562D01*
X93891441Y-121891490D01*
X94036431Y-121679290D01*
X94087440Y-121427400D01*
X94087440Y-120177400D01*
X94043162Y-119942083D01*
X93904090Y-119725959D01*
X93691890Y-119580969D01*
X93440000Y-119529960D01*
X92862400Y-119529960D01*
X92862400Y-118628831D01*
X93232584Y-118999015D01*
X93331362Y-119065016D01*
X93479795Y-119164196D01*
X93771400Y-119222200D01*
X95122818Y-119222200D01*
X95164838Y-119445517D01*
X95303910Y-119661641D01*
X95373711Y-119709334D01*
X95316559Y-119746110D01*
X95171569Y-119958310D01*
X95120560Y-120210200D01*
X95120560Y-121710200D01*
X95164838Y-121945517D01*
X95303910Y-122161641D01*
X95516110Y-122306631D01*
X95768000Y-122357640D01*
X97018000Y-122357640D01*
X97253317Y-122313362D01*
X97469441Y-122174290D01*
X97557627Y-122045226D01*
X97640710Y-122174341D01*
X97852910Y-122319331D01*
X98104800Y-122370340D01*
X99354800Y-122370340D01*
X99590117Y-122326062D01*
X99806241Y-122186990D01*
X99951231Y-121974790D01*
X99988083Y-121792810D01*
X100029341Y-121834140D01*
X100388630Y-121983330D01*
X100777663Y-121983669D01*
X101137212Y-121835107D01*
X101412540Y-121560259D01*
X101561730Y-121200970D01*
X101562069Y-120811937D01*
X101413507Y-120452388D01*
X101138659Y-120177060D01*
X100779370Y-120027870D01*
X100390337Y-120027531D01*
X100030788Y-120176093D01*
X99999340Y-120207486D01*
X99957962Y-119987583D01*
X99818890Y-119771459D01*
X99749089Y-119723766D01*
X99806241Y-119686990D01*
X99951231Y-119474790D01*
X100002240Y-119222900D01*
X100002240Y-118569691D01*
X106461000Y-118569691D01*
X106461000Y-119010250D01*
X106619750Y-119169000D01*
X107569000Y-119169000D01*
X107569000Y-118219750D01*
X107823000Y-118219750D01*
X107823000Y-119169000D01*
X108772250Y-119169000D01*
X108931000Y-119010250D01*
X108931000Y-118569691D01*
X108834327Y-118336302D01*
X108655699Y-118157673D01*
X108422310Y-118061000D01*
X107981750Y-118061000D01*
X107823000Y-118219750D01*
X107569000Y-118219750D01*
X107410250Y-118061000D01*
X106969690Y-118061000D01*
X106736301Y-118157673D01*
X106557673Y-118336302D01*
X106461000Y-118569691D01*
X100002240Y-118569691D01*
X100002240Y-118530379D01*
X100133400Y-118556940D01*
X101633400Y-118556940D01*
X101868717Y-118512662D01*
X102084841Y-118373590D01*
X102132534Y-118303789D01*
X102169310Y-118360941D01*
X102381510Y-118505931D01*
X102633400Y-118556940D01*
X104133400Y-118556940D01*
X104368717Y-118512662D01*
X104584841Y-118373590D01*
X104729831Y-118161390D01*
X104780840Y-117909500D01*
X104780840Y-116659500D01*
X104736562Y-116424183D01*
X104597490Y-116208059D01*
X104385290Y-116063069D01*
X104145400Y-116014490D01*
X104145400Y-115956430D01*
X104761416Y-115340414D01*
X104753400Y-115380715D01*
X104753400Y-115730085D01*
X104837894Y-116154864D01*
X105078511Y-116514974D01*
X105438621Y-116755591D01*
X105863400Y-116840085D01*
X106288179Y-116755591D01*
X106648289Y-116514974D01*
X106888906Y-116154864D01*
X106973400Y-115730085D01*
X106973400Y-115380715D01*
X106911567Y-115069858D01*
X106989841Y-115019490D01*
X107134831Y-114807290D01*
X107185840Y-114555400D01*
X107185840Y-114155400D01*
X107161456Y-114025811D01*
X107185840Y-113905400D01*
X107185840Y-113505400D01*
X107161456Y-113375811D01*
X107185840Y-113255400D01*
X107185840Y-112855400D01*
X107161456Y-112725811D01*
X107185840Y-112605400D01*
X107185840Y-112517400D01*
X107400569Y-112517400D01*
X107496941Y-112613940D01*
X107856230Y-112763130D01*
X108245263Y-112763469D01*
X108604812Y-112614907D01*
X108880140Y-112340059D01*
X109029330Y-111980770D01*
X109029669Y-111591737D01*
X108881107Y-111232188D01*
X108606259Y-110956860D01*
X108246970Y-110807670D01*
X107857937Y-110807331D01*
X107498388Y-110955893D01*
X107460815Y-110993400D01*
X106921023Y-110993400D01*
X106973400Y-110730085D01*
X106973400Y-110380715D01*
X106888906Y-109955936D01*
X106648289Y-109595826D01*
X106288179Y-109355209D01*
X105863400Y-109270715D01*
X105438621Y-109355209D01*
X105078511Y-109595826D01*
X104837894Y-109955936D01*
X104753400Y-110380715D01*
X104753400Y-110730085D01*
X104815233Y-111040942D01*
X104736959Y-111091310D01*
X104591969Y-111303510D01*
X104540960Y-111555400D01*
X104540960Y-111955400D01*
X104565344Y-112084989D01*
X104540960Y-112205400D01*
X104540960Y-112293400D01*
X104538780Y-112293400D01*
X104538780Y-110777347D01*
X104574080Y-110603030D01*
X104574080Y-110153450D01*
X104529802Y-109918133D01*
X104390730Y-109702009D01*
X104356731Y-109678778D01*
X104378081Y-109665040D01*
X104523071Y-109452840D01*
X104574080Y-109200950D01*
X104574080Y-108751370D01*
X104529802Y-108516053D01*
X104390730Y-108299929D01*
X104178530Y-108154939D01*
X103987600Y-108116275D01*
X103987600Y-107986839D01*
X104079540Y-107895059D01*
X104228730Y-107535770D01*
X104229069Y-107146737D01*
X104080507Y-106787188D01*
X103805659Y-106511860D01*
X103446370Y-106362670D01*
X103057337Y-106362331D01*
X102697788Y-106510893D01*
X102422460Y-106785741D01*
X102273270Y-107145030D01*
X102272931Y-107534063D01*
X102421493Y-107893612D01*
X102565200Y-108037570D01*
X102565200Y-108115400D01*
X102390843Y-108148208D01*
X102174719Y-108287280D01*
X102029729Y-108499480D01*
X101978720Y-108751370D01*
X101978720Y-109200950D01*
X102022998Y-109436267D01*
X102162070Y-109652391D01*
X102196069Y-109675622D01*
X102174719Y-109689360D01*
X102029729Y-109901560D01*
X101978720Y-110153450D01*
X101978720Y-110603030D01*
X102014020Y-110790633D01*
X102014020Y-111029710D01*
X101939860Y-111103741D01*
X101790670Y-111463030D01*
X101790331Y-111852063D01*
X101885578Y-112082580D01*
X98609811Y-112082580D01*
X98022840Y-111495609D01*
X98022840Y-110525800D01*
X97978562Y-110290483D01*
X97839490Y-110074359D01*
X97627290Y-109929369D01*
X97375400Y-109878360D01*
X95875400Y-109878360D01*
X95640083Y-109922638D01*
X95423959Y-110061710D01*
X95278969Y-110273910D01*
X95276319Y-110286997D01*
X95139490Y-110074359D01*
X94927290Y-109929369D01*
X94675400Y-109878360D01*
X93175400Y-109878360D01*
X92940083Y-109922638D01*
X92723959Y-110061710D01*
X92633800Y-110193662D01*
X92633800Y-108789818D01*
X92921854Y-108597347D01*
X92951203Y-108553423D01*
X93023473Y-108727898D01*
X93202101Y-108906527D01*
X93435490Y-109003200D01*
X94126050Y-109003200D01*
X94284800Y-108844450D01*
X94284800Y-107645200D01*
X94538800Y-107645200D01*
X94538800Y-108844450D01*
X94697550Y-109003200D01*
X95388110Y-109003200D01*
X95621499Y-108906527D01*
X95800127Y-108727898D01*
X95896800Y-108494509D01*
X95896800Y-107803950D01*
X95738050Y-107645200D01*
X94538800Y-107645200D01*
X94284800Y-107645200D01*
X94264800Y-107645200D01*
X94264800Y-107391200D01*
X94284800Y-107391200D01*
X94284800Y-106191950D01*
X94538800Y-106191950D01*
X94538800Y-107391200D01*
X95738050Y-107391200D01*
X95896800Y-107232450D01*
X95896800Y-106541891D01*
X95800127Y-106308502D01*
X95621499Y-106129873D01*
X95388110Y-106033200D01*
X94697550Y-106033200D01*
X94538800Y-106191950D01*
X94284800Y-106191950D01*
X94126050Y-106033200D01*
X93435490Y-106033200D01*
X93202101Y-106129873D01*
X93023473Y-106308502D01*
X92951203Y-106482977D01*
X92921854Y-106439053D01*
X92440085Y-106117146D01*
X91871800Y-106004107D01*
X91303515Y-106117146D01*
X90821746Y-106439053D01*
X90601800Y-106768226D01*
X90381854Y-106439053D01*
X89900085Y-106117146D01*
X89331800Y-106004107D01*
X88763515Y-106117146D01*
X88281746Y-106439053D01*
X88061800Y-106768226D01*
X87841854Y-106439053D01*
X87360085Y-106117146D01*
X86791800Y-106004107D01*
X86223515Y-106117146D01*
X85741746Y-106439053D01*
X85419839Y-106920822D01*
X85306800Y-107489107D01*
X85306800Y-107547293D01*
X85419839Y-108115578D01*
X85741746Y-108597347D01*
X86223515Y-108919254D01*
X86791800Y-109032293D01*
X87360085Y-108919254D01*
X87841854Y-108597347D01*
X88061800Y-108268174D01*
X88281746Y-108597347D01*
X88681200Y-108864253D01*
X88681200Y-110020219D01*
X88350737Y-110019931D01*
X87991188Y-110168493D01*
X87715860Y-110443341D01*
X87566670Y-110802630D01*
X87566331Y-111191663D01*
X87714893Y-111551212D01*
X87746756Y-111583131D01*
X87643200Y-111562160D01*
X87343200Y-111562160D01*
X87161776Y-111596297D01*
X86993200Y-111562160D01*
X86693200Y-111562160D01*
X86457883Y-111606438D01*
X86241759Y-111745510D01*
X86096769Y-111957710D01*
X86045760Y-112209600D01*
X86045760Y-112487160D01*
X85768200Y-112487160D01*
X85532883Y-112531438D01*
X85316759Y-112670510D01*
X85171769Y-112882710D01*
X85120760Y-113134600D01*
X85120760Y-113434600D01*
X85132721Y-113498169D01*
X85037584Y-113434600D01*
X84899005Y-113342004D01*
X84607400Y-113284000D01*
X84134174Y-113284000D01*
X84045090Y-113145559D01*
X83874291Y-113028857D01*
X84032441Y-112927090D01*
X84177431Y-112714890D01*
X84228440Y-112463000D01*
X84228440Y-110963000D01*
X84184162Y-110727683D01*
X84045090Y-110511559D01*
X83883467Y-110401127D01*
X83883535Y-110322908D01*
X84032441Y-110227090D01*
X84177431Y-110014890D01*
X84228440Y-109763000D01*
X84228440Y-108263000D01*
X84184162Y-108027683D01*
X84045090Y-107811559D01*
X83832890Y-107666569D01*
X83581000Y-107615560D01*
X82281000Y-107615560D01*
X82045683Y-107659838D01*
X81977495Y-107703716D01*
X81980129Y-107184854D01*
X82136110Y-107291431D01*
X82388000Y-107342440D01*
X83888000Y-107342440D01*
X84123317Y-107298162D01*
X84339441Y-107159090D01*
X84484431Y-106946890D01*
X84535440Y-106695000D01*
X84535440Y-105395000D01*
X84491162Y-105159683D01*
X84352090Y-104943559D01*
X84139890Y-104798569D01*
X83900000Y-104749990D01*
X83900000Y-104372608D01*
X83992212Y-104334507D01*
X84267540Y-104059659D01*
X84416730Y-103700370D01*
X84417069Y-103311337D01*
X84268507Y-102951788D01*
X83993659Y-102676460D01*
X83634370Y-102527270D01*
X83245337Y-102526931D01*
X82885788Y-102675493D01*
X82610460Y-102950341D01*
X82461270Y-103309630D01*
X82461127Y-103473803D01*
X82434004Y-103514395D01*
X82376000Y-103806000D01*
X82376000Y-104749818D01*
X82152683Y-104791838D01*
X81991751Y-104895395D01*
X82038377Y-95710000D01*
X95180083Y-95710000D01*
X95141060Y-95902700D01*
G36*
X101938893Y-114789712D02*
X102213741Y-115065040D01*
X102573030Y-115214230D01*
X102769471Y-115214401D01*
X102679404Y-115349195D01*
X102621400Y-115640800D01*
X102621400Y-116014318D01*
X102398083Y-116056338D01*
X102181959Y-116195410D01*
X102134266Y-116265211D01*
X102097490Y-116208059D01*
X101885290Y-116063069D01*
X101633400Y-116012060D01*
X100133400Y-116012060D01*
X99898083Y-116056338D01*
X99681959Y-116195410D01*
X99536969Y-116407610D01*
X99485960Y-116659500D01*
X99485960Y-116674473D01*
X99379384Y-116745685D01*
X99049609Y-117075460D01*
X98104800Y-117075460D01*
X97869483Y-117119738D01*
X97653359Y-117258810D01*
X97565173Y-117387874D01*
X97482090Y-117258759D01*
X97269890Y-117113769D01*
X97018000Y-117062760D01*
X95768000Y-117062760D01*
X95532683Y-117107038D01*
X95316559Y-117246110D01*
X95171569Y-117458310D01*
X95122990Y-117698200D01*
X94087031Y-117698200D01*
X93395800Y-117006970D01*
X93395800Y-116033550D01*
X93618300Y-116033550D01*
X93618300Y-116499110D01*
X93714973Y-116732499D01*
X93893602Y-116911127D01*
X94126991Y-117007800D01*
X94717550Y-117007800D01*
X94876300Y-116849050D01*
X94876300Y-115874800D01*
X93777050Y-115874800D01*
X93618300Y-116033550D01*
X93395800Y-116033550D01*
X93395800Y-115722400D01*
X93337796Y-115430795D01*
X93325361Y-115412185D01*
X93172615Y-115183584D01*
X92685630Y-114696600D01*
X93067703Y-114696600D01*
X93251600Y-114733840D01*
X93744234Y-114733840D01*
X93714973Y-114763101D01*
X93618300Y-114996490D01*
X93618300Y-115462050D01*
X93777050Y-115620800D01*
X94876300Y-115620800D01*
X94876300Y-115600800D01*
X95130300Y-115600800D01*
X95130300Y-115620800D01*
X95150300Y-115620800D01*
X95150300Y-115874800D01*
X95130300Y-115874800D01*
X95130300Y-116849050D01*
X95289050Y-117007800D01*
X95879609Y-117007800D01*
X96112998Y-116911127D01*
X96254236Y-116769890D01*
X96289210Y-116824241D01*
X96501410Y-116969231D01*
X96753300Y-117020240D01*
X98253300Y-117020240D01*
X98488617Y-116975962D01*
X98704741Y-116836890D01*
X98849731Y-116624690D01*
X98882738Y-116461695D01*
X98932505Y-116451796D01*
X99179715Y-116286615D01*
X99400943Y-116065387D01*
X99494963Y-116065469D01*
X99854512Y-115916907D01*
X100129840Y-115642059D01*
X100279030Y-115282770D01*
X100279369Y-114893737D01*
X100130807Y-114534188D01*
X100064135Y-114467400D01*
X101805717Y-114467400D01*
X101938893Y-114789712D01*
X101938893Y-114789712D01*
G37*
X101938893Y-114789712D02*
X102213741Y-115065040D01*
X102573030Y-115214230D01*
X102769471Y-115214401D01*
X102679404Y-115349195D01*
X102621400Y-115640800D01*
X102621400Y-116014318D01*
X102398083Y-116056338D01*
X102181959Y-116195410D01*
X102134266Y-116265211D01*
X102097490Y-116208059D01*
X101885290Y-116063069D01*
X101633400Y-116012060D01*
X100133400Y-116012060D01*
X99898083Y-116056338D01*
X99681959Y-116195410D01*
X99536969Y-116407610D01*
X99485960Y-116659500D01*
X99485960Y-116674473D01*
X99379384Y-116745685D01*
X99049609Y-117075460D01*
X98104800Y-117075460D01*
X97869483Y-117119738D01*
X97653359Y-117258810D01*
X97565173Y-117387874D01*
X97482090Y-117258759D01*
X97269890Y-117113769D01*
X97018000Y-117062760D01*
X95768000Y-117062760D01*
X95532683Y-117107038D01*
X95316559Y-117246110D01*
X95171569Y-117458310D01*
X95122990Y-117698200D01*
X94087031Y-117698200D01*
X93395800Y-117006970D01*
X93395800Y-116033550D01*
X93618300Y-116033550D01*
X93618300Y-116499110D01*
X93714973Y-116732499D01*
X93893602Y-116911127D01*
X94126991Y-117007800D01*
X94717550Y-117007800D01*
X94876300Y-116849050D01*
X94876300Y-115874800D01*
X93777050Y-115874800D01*
X93618300Y-116033550D01*
X93395800Y-116033550D01*
X93395800Y-115722400D01*
X93337796Y-115430795D01*
X93325361Y-115412185D01*
X93172615Y-115183584D01*
X92685630Y-114696600D01*
X93067703Y-114696600D01*
X93251600Y-114733840D01*
X93744234Y-114733840D01*
X93714973Y-114763101D01*
X93618300Y-114996490D01*
X93618300Y-115462050D01*
X93777050Y-115620800D01*
X94876300Y-115620800D01*
X94876300Y-115600800D01*
X95130300Y-115600800D01*
X95130300Y-115620800D01*
X95150300Y-115620800D01*
X95150300Y-115874800D01*
X95130300Y-115874800D01*
X95130300Y-116849050D01*
X95289050Y-117007800D01*
X95879609Y-117007800D01*
X96112998Y-116911127D01*
X96254236Y-116769890D01*
X96289210Y-116824241D01*
X96501410Y-116969231D01*
X96753300Y-117020240D01*
X98253300Y-117020240D01*
X98488617Y-116975962D01*
X98704741Y-116836890D01*
X98849731Y-116624690D01*
X98882738Y-116461695D01*
X98932505Y-116451796D01*
X99179715Y-116286615D01*
X99400943Y-116065387D01*
X99494963Y-116065469D01*
X99854512Y-115916907D01*
X100129840Y-115642059D01*
X100279030Y-115282770D01*
X100279369Y-114893737D01*
X100130807Y-114534188D01*
X100064135Y-114467400D01*
X101805717Y-114467400D01*
X101938893Y-114789712D01*
M02*
